<?xml version="1.0" encoding="utf-8"?>
<!-- Generator: Adobe Illustrator 27.5.0, SVG Export Plug-In . SVG Version: 6.00 Build 0)  -->
<svg version="1.1" xmlns="http://www.w3.org/2000/svg" xmlns:xlink="http://www.w3.org/1999/xlink" x="0px" y="0px"
	 viewBox="0 0 2500 2500" style="enable-background:new 0 0 2500 2500;" xml:space="preserve">
<g id="Background">
	<rect style="fill:#FFFFFF;" width="2500" height="2500"/>
</g>
<g id="Illustration">
	<g id="Set_quick_and_efficient_pickup_service_1_">
		<circle style="fill:#F2E6DC;" cx="1250" cy="1250" r="915"/>
		<g>
			<g>
				<path style="fill:#F7F1EB;" d="M1583.493,1881.884l27.37-11.803c8.204,12.286,17.295,23.753,27.139,34.365l-17.789,23.891
					l80.907,60.247l17.831-23.945c13.111,6.443,26.71,11.847,40.665,16.161l-3.469,29.652l100.193,11.722l0,0l3.461-29.584
					c14.443-0.96,28.926-3.059,43.324-6.362l11.803,27.37l92.63-39.945l-11.803-27.37c12.285-8.204,23.752-17.294,34.364-27.139
					l23.89,17.789h0.001l60.248-80.908l-23.945-17.83c6.442-13.11,11.847-26.709,16.161-40.665l29.652,3.469l11.723-100.193
					l-29.585-3.462c-0.96-14.443-3.059-28.925-6.362-43.324l27.37-11.803l-39.944-92.63l0,0l-27.37,11.803
					c-8.205-12.285-17.295-23.752-27.14-34.364l17.79-23.89l-80.909-60.249l-17.829,23.946
					c-13.111-6.442-26.71-11.847-40.666-16.161l3.469-29.652l-100.192-11.723l-3.461,29.585
					c-14.444,0.959-28.926,3.059-43.325,6.362l-11.803-27.37l-92.629,39.944l11.802,27.371
					c-12.286,8.204-23.753,17.294-34.364,27.14l-23.891-17.791l-60.248,80.908l23.944,17.83
					c-6.442,13.111-11.847,26.71-16.161,40.666l-29.652-3.469l-11.721,100.191l29.584,3.463c0.96,14.443,3.059,28.925,6.362,43.324
					l-27.37,11.803L1583.493,1881.884z M1782.969,1566.999c77.89-30.678,167.451,4.914,203.036,80.689
					c39.293,83.674-0.143,182.907-86.152,216.784c-77.889,30.679-167.451-4.914-203.035-80.689
					C1657.523,1700.11,1696.96,1600.876,1782.969,1566.999z"/>
			</g>
			<path style="fill:#FFFFFF;" d="M1841.395,1938.642c-67.187,0-132.66-30.394-175.847-85.914c-0.747-0.96-0.575-2.346,0.385-3.094
				c0.965-0.746,2.349-0.574,3.094,0.388c61.033,78.461,167.489,105.73,258.89,66.317c53.583-23.105,94.96-65.696,116.511-119.924
				c21.551-54.228,20.692-113.602-2.414-167.185c-42.471-98.487-152.55-152.151-256.101-124.819
				c-1.163,0.31-2.384-0.391-2.694-1.569c-0.31-1.178,0.392-2.384,1.57-2.695c51.06-13.48,105.528-8.22,153.368,14.807
				c48.323,23.259,86.642,63.223,107.905,112.529c23.575,54.665,24.449,115.237,2.463,170.56
				c-21.986,55.323-64.198,98.772-118.864,122.345C1901.094,1932.708,1871.074,1938.642,1841.395,1938.642z"/>
		</g>
		<g>
			<g>
				<path style="fill:#FFFFFF;" d="M780.043,774.78l20.562-8.867c6.164,9.23,12.993,17.844,20.39,25.817l-13.365,17.948
					l60.784,45.262l13.395-17.989c9.849,4.84,20.066,8.9,30.551,12.141l-2.606,22.276l75.271,8.807l0,0l2.6-22.226
					c10.851-0.721,21.731-2.298,32.548-4.779l8.867,20.563l69.59-30.009l-8.867-20.563c9.23-6.164,17.845-12.993,25.817-20.39
					l17.948,13.365h0l45.262-60.784l-17.989-13.396c4.84-9.849,8.9-20.066,12.141-30.551l22.276,2.606l8.806-75.271l-22.226-2.601
					c-0.721-10.851-2.298-21.73-4.779-32.548l20.563-8.867l-30.009-69.59h0l-20.563,8.867c-6.164-9.23-12.993-17.845-20.389-25.817
					l13.365-17.948l-60.784-45.262l-13.395,17.989c-9.85-4.84-20.066-8.9-30.551-12.141l2.606-22.276l-75.271-8.806l-2.6,22.226
					c-10.851,0.72-21.731,2.298-32.549,4.779l-8.867-20.563l-69.59,30.009l8.867,20.563c-9.23,6.164-17.845,12.993-25.817,20.389
					l-17.948-13.365l-45.262,60.784l17.989,13.395c-4.84,9.85-8.9,20.066-12.141,30.551l-22.276-2.606l-8.807,75.271l22.226,2.601
					c0.721,10.851,2.298,21.731,4.779,32.548l-20.563,8.867L780.043,774.78z M924.868,525.4
					c65.228-25.691,140.231,4.116,170.03,67.572c32.906,70.071-0.12,153.174-72.147,181.544
					c-65.228,25.692-140.231-4.115-170.03-67.572C819.814,636.873,852.84,553.771,924.868,525.4z"/>
			</g>
			<path style="fill:#F2E6DC;" d="M973.797,817.97c-50.64,0-99.99-22.908-132.541-64.756c-0.747-0.96-0.575-2.346,0.385-3.094
				c0.965-0.747,2.347-0.572,3.094,0.388c45.698,58.746,125.406,79.166,193.847,49.654c82.821-35.715,121.145-132.152,85.43-214.974
				c-31.802-73.745-114.235-113.923-191.759-93.46c-1.165,0.306-2.383-0.391-2.694-1.569c-0.31-1.178,0.392-2.385,1.57-2.695
				c38.487-10.162,79.541-6.196,115.6,11.161c36.423,17.531,65.305,47.653,81.331,84.817
				c36.679,85.055-2.679,184.092-87.734,220.771C1018.795,813.497,996.166,817.97,973.797,817.97z"/>
		</g>
		<g>
			<g>
				<polygon style="fill:#E6D0BE;" points="1916.446,2012.997 1714.47,2015.362 1699.47,2000.13 1668.767,2015.897 
					1381.12,2019.266 1363.407,2001.534 1333.877,2019.819 1237.412,2020.948 1246.529,1905.175 1235.647,1870.218 
					1229.306,1328.61 1235.145,1274.045 1228.366,1248.371 1224.214,893.798 1237.802,874.404 1223.708,850.527 1222.412,739.905 
					1581.818,735.697 1596.296,761.898 1627.343,735.164 1854.092,732.509 1871.661,747.671 1901.446,731.954 1907.239,1226.668 
					1898.699,1319.434 1908.938,1371.765 1912.271,1656.409 1896.626,1675.214 1912.828,1704.04 				"/>
				<path style="fill:#363E44;" d="M1248.366,2085.753c-37.671,0-68.532-30.416-68.976-68.183l-15.35-1310.944
					c-0.443-38.041,30.142-69.351,68.182-69.796l644.175-7.542c38.145-0.41,69.351,30.14,69.796,68.18l15.35,1310.944
					c0.215,18.427-6.757,35.835-19.635,49.017s-30.118,20.563-48.545,20.778l-0.026-2.205l0.026,2.205l-644.177,7.542
					C1248.915,2085.752,1248.637,2085.753,1248.366,2085.753z M1877.217,633.692c-0.256,0-0.512,0.001-0.769,0.004l-644.175,7.542
					c-35.609,0.417-64.239,29.726-63.823,65.335l15.35,1310.944c0.42,35.608,29.744,64.223,65.335,63.821l644.178-7.542
					c17.249-0.201,33.389-7.109,45.442-19.449c12.055-12.339,18.582-28.636,18.379-45.884l-15.35-1310.944
					C1941.368,662.166,1912.477,633.692,1877.217,633.692z"/>
				<g>
					<path style="fill:#363E44;" d="M1519.276,689.942c-1.206,0-2.19-0.97-2.205-2.179c-0.015-1.218,0.962-2.217,2.179-2.231
						l98.455-1.152c0.009,0,0.017,0,0.026,0c1.206,0,2.19,0.97,2.205,2.179c0.015,1.218-0.962,2.217-2.179,2.231l-98.455,1.152
						C1519.294,689.942,1519.285,689.942,1519.276,689.942z"/>
				</g>
			</g>
			<g>
				<polygon style="fill:#F2E6DC;" points="1675.278,1224.593 1548.145,1520.408 1800.873,1641.285 1898.699,1319.434 				"/>
				<polygon style="fill:#FFFFFF;" points="1381.12,2019.266 1333.877,2019.819 1854.092,732.509 1901.446,731.954 				"/>
				<polygon style="fill:#FFFFFF;" points="1714.47,2015.362 1668.767,2015.897 1907.239,1226.668 1908.938,1371.765 				"/>
				<polygon style="fill:#E6D0BE;" points="1223.917,868.418 1540.673,882.342 1474.355,1155.132 1351.448,1104.545 
					1228.366,1248.371 				"/>
				<polygon style="fill:#FFFFFF;" points="1908.037,1294.819 1340.704,1072.319 1228.366,1248.371 1229.306,1328.61 
					1358.311,1126.438 1908.592,1342.249 				"/>
				<path style="fill:#D3BBA3;" d="M1235.647,1870.218l1.765,150.73l135.483-469.562c-13.763-4.335-27.249-9.658-41.558-12.941
					L1235.647,1870.218z"/>
				<path style="fill:#D3BBA3;" d="M1581.817,735.675l-197.109,617.718c13.049,6.743,26.6,12.04,40.316,17.315l202.318-635.566
					L1581.817,735.675z"/>
				<path style="fill:#D3BBA3;" d="M1377.79,1579.847c-70.104,0.821-127.807-55.545-128.628-125.65
					c-0.821-70.105,55.546-127.808,125.651-128.629c70.104-0.821,127.807,55.547,128.628,125.652
					C1504.261,1521.324,1447.894,1579.026,1377.79,1579.847z M1375.485,1383.004c-38.435,0.45-69.337,32.084-68.887,70.52
					c0.45,38.434,32.084,69.336,70.519,68.886c38.435-0.45,69.337-32.084,68.887-70.518
					C1445.554,1413.456,1413.92,1382.554,1375.485,1383.004z"/>
				<path style="fill:#D3BBA3;" d="M1912.271,1656.409l-443.525-189.373c-8.29,12.125-15.206,24.926-22.121,37.892l466.204,199.111
					L1912.271,1656.409z"/>
				<path style="fill:#D3BBA3;" d="M1903.067,870.402l-679.36-19.875c0.281,20.029,0.325,27.714,0.507,43.27l679.359,19.821
					L1903.067,870.402z"/>
			</g>
			<path style="fill:#363E44;" d="M1715.223,1947.269c-0.204,0-0.413-0.029-0.62-0.09c-1.169-0.342-1.839-1.568-1.496-2.736
				l7.441-25.39c0.342-1.168,1.57-1.84,2.737-1.495c1.169,0.342,1.839,1.568,1.496,2.736l-7.441,25.39
				C1717.058,1946.645,1716.177,1947.269,1715.223,1947.269z M1730.106,1896.489c-0.205,0-0.413-0.029-0.62-0.09
				c-1.169-0.342-1.839-1.568-1.497-2.736l7.443-25.39c0.342-1.167,1.568-1.84,2.737-1.495c1.169,0.342,1.839,1.568,1.496,2.735
				l-7.443,25.39C1731.94,1895.865,1731.06,1896.489,1730.106,1896.489z M1744.99,1845.711c-0.204,0-0.413-0.029-0.62-0.09
				c-1.169-0.342-1.839-1.568-1.496-2.736l7.441-25.39c0.342-1.167,1.568-1.842,2.737-1.495c1.169,0.342,1.839,1.568,1.496,2.736
				l-7.441,25.39C1746.825,1845.086,1745.944,1845.711,1744.99,1845.711z M1759.873,1794.931c-0.205,0-0.413-0.029-0.62-0.09
				c-1.169-0.342-1.839-1.568-1.497-2.736l7.443-25.39c0.342-1.167,1.565-1.842,2.737-1.495c1.169,0.342,1.839,1.567,1.496,2.735
				l-7.443,25.39C1761.708,1794.307,1760.827,1794.931,1759.873,1794.931z M1774.758,1744.151c-0.205,0-0.413-0.029-0.62-0.09
				c-1.169-0.342-1.839-1.568-1.496-2.736l7.441-25.39c0.342-1.167,1.57-1.843,2.737-1.495c1.169,0.342,1.839,1.568,1.496,2.736
				l-7.441,25.39C1776.592,1743.527,1775.712,1744.151,1774.758,1744.151z M1789.64,1693.373c-0.205,0-0.413-0.029-0.62-0.091
				c-1.169-0.342-1.839-1.567-1.496-2.735l7.443-25.39c0.342-1.167,1.568-1.844,2.737-1.495c1.169,0.342,1.839,1.568,1.496,2.736
				l-7.443,25.39C1791.475,1692.748,1790.594,1693.373,1789.64,1693.373z M1804.525,1642.593c-0.205,0-0.413-0.029-0.62-0.09
				c-1.169-0.342-1.839-1.568-1.496-2.736l0.392-1.332l-19.38-8.635c-1.111-0.496-1.613-1.799-1.115-2.912
				c0.495-1.111,1.794-1.608,2.911-1.116l21.14,9.42c1.008,0.45,1.529,1.575,1.219,2.634l-0.932,3.181
				C1806.359,1641.968,1805.479,1642.593,1804.525,1642.593z M1760.149,1619.223c-0.299,0-0.603-0.062-0.896-0.192l-24.167-10.769
				c-1.111-0.496-1.613-1.799-1.115-2.912c0.493-1.111,1.791-1.608,2.911-1.116l24.167,10.769c1.111,0.496,1.613,1.799,1.115,2.912
				C1761.8,1618.735,1760.993,1619.223,1760.149,1619.223z M1711.815,1597.685c-0.299,0-0.603-0.062-0.896-0.192l-24.167-10.77
				c-1.111-0.496-1.613-1.8-1.115-2.912c0.495-1.111,1.794-1.608,2.911-1.116l24.167,10.77c1.111,0.496,1.613,1.8,1.115,2.912
				C1713.464,1597.197,1712.659,1597.685,1711.815,1597.685z M1663.481,1576.146c-0.299,0-0.603-0.062-0.896-0.192l-24.167-10.769
				c-1.111-0.496-1.613-1.799-1.115-2.912c0.493-1.111,1.791-1.608,2.911-1.116l24.167,10.769c1.111,0.496,1.613,1.799,1.115,2.912
				C1665.133,1575.658,1664.325,1576.146,1663.481,1576.146z M1615.147,1554.608c-0.299,0-0.603-0.062-0.896-0.192l-24.167-10.77
				c-1.111-0.496-1.613-1.8-1.115-2.912c0.495-1.112,1.794-1.612,2.911-1.116l24.167,10.77c1.111,0.496,1.613,1.8,1.115,2.912
				C1616.797,1554.12,1615.991,1554.608,1615.147,1554.608z M1566.814,1533.068c-0.299,0-0.603-0.061-0.896-0.191l-10.686-4.762
				c-1.087-0.484-1.593-1.745-1.143-2.848l5.579-13.664c0.461-1.129,1.748-1.667,2.874-1.208c1.128,0.461,1.669,1.747,1.208,2.874
				l-4.771,11.686l8.735,3.892c1.111,0.496,1.613,1.799,1.115,2.912C1568.465,1532.581,1567.658,1533.068,1566.814,1533.068z
				 M1571.708,1490.148c-0.278,0-0.56-0.053-0.833-0.165c-1.128-0.46-1.669-1.747-1.208-2.875l9.999-24.495
				c0.463-1.128,1.746-1.67,2.874-1.208c1.128,0.46,1.669,1.747,1.208,2.874l-9.999,24.495
				C1573.4,1489.63,1572.575,1490.148,1571.708,1490.148z M1591.708,1441.157c-0.278,0-0.56-0.053-0.833-0.165
				c-1.128-0.46-1.669-1.747-1.208-2.874l9.999-24.495c0.461-1.128,1.746-1.669,2.874-1.208c1.128,0.46,1.669,1.747,1.208,2.874
				l-9.999,24.495C1593.401,1440.64,1592.576,1441.157,1591.708,1441.157z M1611.709,1392.167c-0.278,0-0.56-0.053-0.833-0.165
				c-1.128-0.46-1.669-1.747-1.208-2.874l9.999-24.495c0.461-1.127,1.748-1.671,2.875-1.208c1.128,0.46,1.669,1.747,1.208,2.875
				l-9.999,24.495C1613.401,1391.649,1612.577,1392.167,1611.709,1392.167z M1631.707,1343.177c-0.278,0-0.56-0.053-0.833-0.165
				c-1.128-0.46-1.669-1.747-1.208-2.874l10.001-24.495c0.461-1.128,1.748-1.67,2.874-1.208c1.128,0.461,1.669,1.747,1.208,2.875
				l-10.001,24.495C1633.4,1342.659,1632.575,1343.177,1631.707,1343.177z M1651.708,1294.186c-0.278,0-0.56-0.053-0.833-0.165
				c-1.128-0.46-1.669-1.747-1.208-2.875l9.999-24.495c0.461-1.128,1.746-1.668,2.874-1.208c1.128,0.46,1.669,1.747,1.208,2.874
				l-9.999,24.495C1653.4,1293.668,1652.575,1294.186,1651.708,1294.186z M1789.281,1273.936c-0.245,0-0.495-0.042-0.741-0.129
				l-24.921-8.891c-1.148-0.409-1.744-1.671-1.335-2.817c0.407-1.147,1.662-1.75,2.816-1.336l24.92,8.891
				c1.148,0.409,1.744,1.671,1.335,2.817C1791.036,1273.373,1790.187,1273.936,1789.281,1273.936z M1739.442,1256.153
				c-0.245,0-0.495-0.042-0.741-0.129l-24.918-8.891c-1.148-0.409-1.746-1.671-1.335-2.817c0.407-1.146,1.662-1.746,2.816-1.336
				l24.918,8.891c1.148,0.409,1.746,1.671,1.335,2.817C1741.197,1255.59,1740.348,1256.153,1739.442,1256.153z M1671.708,1245.196
				c-0.278,0-0.56-0.053-0.833-0.165c-1.128-0.46-1.669-1.747-1.208-2.875l4.707-11.531c0.443-1.092,1.677-1.642,2.782-1.244
				l13.188,4.706c1.148,0.409,1.746,1.671,1.335,2.817c-0.409,1.146-1.667,1.744-2.816,1.336l-11.203-3.997l-3.91,9.579
				C1673.401,1244.678,1672.576,1245.196,1671.708,1245.196z"/>
			<g>
				<path style="fill:#D87355;" d="M1788.498,1104.295c47.949-0.561,87.274,37.854,87.835,85.802
					c0.562,47.949-85.018,154.776-85.018,154.776s-88.057-104.795-88.619-152.743
					C1702.134,1144.182,1740.549,1104.857,1788.498,1104.295z"/>
				
					<ellipse transform="matrix(0.2796 -0.9601 0.9601 0.2796 145.5776 2576.2437)" style="fill:#FFFFFF;" cx="1789.514" cy="1191.114" rx="59.409" ry="59.409"/>
			</g>
		</g>
		<g>
			<g>
				<g>
					<circle style="fill:#FFFFFF;" cx="1842.895" cy="662.112" r="308.437"/>
					<path style="fill:#D87355;" d="M1842.896,972.754c-171.289,0-310.643-139.354-310.643-310.643
						c0-171.288,139.354-310.642,310.643-310.642c171.287,0,310.641,139.354,310.641,310.642
						C2153.537,833.4,2014.183,972.754,1842.896,972.754z M1842.896,355.879c-168.858,0-306.233,137.375-306.233,306.232
						s137.375,306.233,306.233,306.233c168.856,0,306.231-137.376,306.231-306.233S2011.752,355.879,1842.896,355.879z"/>
				</g>
				<g>
					<g>
						<rect x="1643.853" y="756.963" style="fill:#363E44;" width="56.254" height="72.303"/>
						<rect x="1992.541" y="756.963" style="fill:#363E44;" width="56.254" height="72.303"/>
					</g>
					<g>
						<g>
							<polygon style="fill:#8B865C;" points="2051.531,767.248 1640.712,767.248 1640.712,651.687 1676.316,620.281 
								2015.927,620.281 2051.531,651.687 							"/>
							<polygon style="fill:#8B865C;" points="2015.927,620.281 1676.316,620.281 1739.143,508.089 1953.1,508.089 							"/>
						</g>
						<polygon style="fill:#363E44;" points="1939.625,519.928 1752.619,519.928 1700.861,612.356 1991.383,612.356 						"/>
					</g>
					<g>
						<polygon style="fill:#8B865C;" points="1696.713,612.356 1623.439,612.356 1623.439,586.308 1668.441,576.887 
							1668.441,605.535 1699.854,605.535 						"/>
						<polygon style="fill:#8B865C;" points="1997.257,612.356 2070.531,612.356 2070.531,586.308 2025.529,576.887 
							2025.529,605.535 1994.115,605.535 						"/>
					</g>
					<g>
						<path style="fill:#EFBC73;" d="M1663.656,686.051l68.515,30.959c0.564,0.255,1.204-0.158,1.204-0.777v-29.375
							c0-2.766-1.813-5.206-4.462-6.004l-57.969-17.462c-3.631-1.094-7.288,1.624-7.288,5.416V686.051z"/>
						<path style="fill:#EFBC73;" d="M2029.306,685.016l-69.719,31.503v-29.375c0-3.551,2.327-6.682,5.727-7.706l56.704-17.081
							c3.631-1.094,7.288,1.624,7.288,5.416V685.016z"/>
					</g>
					<rect x="1635.299" y="748.973" style="fill:#776E42;" width="421.221" height="30.003"/>
					<path style="fill:#EFBC73;" d="M1921.415,741.348h-142.695c-1.219,0-2.205-0.987-2.205-2.205s0.986-2.205,2.205-2.205h142.695
						c1.219,0,2.205,0.987,2.205,2.205S1922.634,741.348,1921.415,741.348z"/>
					<path style="fill:#EFBC73;" d="M1923.691,704.103h-145.733c-1.219,0-2.205-0.987-2.205-2.205c0-1.218,0.986-2.205,2.205-2.205
						h145.733c1.219,0,2.205,0.987,2.205,2.205C1925.896,703.116,1924.909,704.103,1923.691,704.103z"/>
				</g>
			</g>
			<g>
				<g>
					<g>
						<polygon style="fill:#D87355;" points="1955.11,485.497 2084.817,485.497 2064.586,373.477 1980.348,373.477 						"/>
					</g>
					<path style="fill:#F7F1EB;" d="M2009.677,478.071c-0.997,0.001-1.901-0.68-2.142-1.694
						c-23.396-98.126-23.153-99.453-23.047-100.02c0.222-1.197,1.378-1.984,2.569-1.768c1.053,0.195,1.792,1.108,1.804,2.14
						c0.48,3.707,13.959,60.863,22.963,98.625c0.282,1.184-0.448,2.374-1.634,2.656
						C2010.019,478.052,2009.847,478.071,2009.677,478.071z"/>
					<path style="fill:#F7F1EB;" d="M1961.007,482.985c-0.769,0-1.514-0.401-1.921-1.116c-0.601-1.059-0.228-2.405,0.831-3.006
						l20.698-11.749v-87.742c0-1.218,0.986-2.205,2.205-2.205s2.205,0.987,2.205,2.205v89.026c0,0.793-0.426,1.525-1.117,1.917
						l-21.816,12.382C1961.75,482.892,1961.375,482.985,1961.007,482.985z"/>
				</g>
				<path style="fill:#D87355;" d="M2001.392,380.552c0.814,0,1.474-0.66,1.474-1.474v-21.323c0-4.985,4.055-9.04,9.04-9.04h17.884
					c4.985,0,9.04,4.055,9.04,9.04v21.323c0,0.814,0.66,1.474,1.474,1.474c0.814,0,1.474-0.66,1.474-1.474v-21.323
					c0-6.61-5.378-11.988-11.988-11.988h-17.884c-6.61,0-11.988,5.378-11.988,11.988v21.323
					C1999.918,379.892,2000.578,380.552,2001.392,380.552z"/>
			</g>
		</g>
		<g>
			<path style="fill:#363E44;" d="M866.417,1561.511c-107.003-19.617-214.009-39.236-321.013-58.853
				c-166.067,253.44-154.616,571.045-123.853,658.078c40.394,1.262,102.839,0.954,243.905,0.469v-330.55h46.699l19.878,330.027
				c113.364-0.396,256.319-0.628,288.39,0.055C952.435,1870.142,884.387,1608.742,866.417,1561.511z"/>
			<g>
				<g>
					<path style="fill:#9D6C5B;" d="M862.282,1421.781c86.764,20.811,333.49,96.201,363.999-7.731
						c25.236-85.968-218.283-148.787-303.101-175.039C902.881,1299.935,882.581,1360.858,862.282,1421.781z"/>
					<g>
						<path style="fill:#9D6C5B;" d="M1064.913,1354.609c0-0.004-0.005-0.008-0.002-0.012
							c87.24-136.579,146.516-235.153,166.012-264.865c2.042-3.112,5.62-8.619,12.038-14.251
							c23.778-20.865,48.424-9.983,83.438-20.514c39.728-11.949,55.334-41.17,64.204-35.377c6.17,4.029,3.387,16.709-11.246,38.4
							c-0.001,0.002,0.002,0.005,0.003,0.003c13.012-15.202,31.559-35.048,39.939-27.832c9.23,8.849-9.822,34.725-22.113,49.815
							c14.877-18.265,28.252-23.527,31.922-18.34c5.776,8.165-2.462,25.016-23.06,48.393l0.001,0.002
							c18.732-12.168,25.09-12.329,27.216-6.952c3.882,9.816-13.415,28.716-31.267,43.081
							c-20.097,16.171-41.293,21.741-54.742,24.935c-0.003,0.001-0.007,0.003-0.008,0.007
							c-51.183,101.992-88.574,165.602-123.623,250.862C1201.288,1476.299,1072.187,1443.193,1064.913,1354.609z"/>
						<path style="fill:#363E44;" d="M1063.32,1357.531c-0.407,0-0.816-0.112-1.184-0.347c-1.027-0.656-1.326-2.019-0.672-3.045
							c11.954-18.723,24.154-37.937,36.257-57.109c0.652-1.028,2.013-1.336,3.042-0.688c1.029,0.65,1.337,2.012,0.687,3.041
							c-12.107,19.179-24.311,38.399-36.27,57.128C1064.761,1357.171,1064.048,1357.531,1063.32,1357.531z"/>
						<path style="fill:#9D6C5B;" d="M1296.536,1072.118c19.84-35.936,19.381-53.103,13.585-56.066
							c-9.746-4.982-39.243,18.765-74.855,67.633C1252.625,1081.993,1279.177,1073.81,1296.536,1072.118z"/>
						<g>
							<path style="fill:#363E44;" d="M1288.785,1142.262c-0.359,0-0.723-0.087-1.061-0.274c-1.066-0.587-1.456-1.927-0.868-2.994
								c3.658-6.651,10.527-15.899,22.459-22.185c16.876-8.891,33.387-6.061,39.702-4.431c1.178,0.305,1.888,1.506,1.585,2.686
								c-0.308,1.179-1.509,1.887-2.687,1.584c-5.816-1.501-21.025-4.112-36.545,4.063c-10.966,5.776-17.281,14.286-20.651,20.409
								C1290.318,1141.85,1289.562,1142.262,1288.785,1142.262z"/>
							<path style="fill:#363E44;" d="M1261.7,1068.379c-0.937,0-1.804-0.601-2.101-1.541c-0.368-1.161,0.276-2.4,1.436-2.767
								c8.804-2.788,18.005-3.41,27.745-4.066c4.504-0.304,9.164-0.618,14.013-1.156c1.23-0.144,2.3,0.739,2.435,1.948
								c0.133,1.21-0.739,2.301-1.949,2.434c-4.944,0.55-9.65,0.868-14.202,1.174c-9.469,0.638-18.414,1.241-26.712,3.869
								C1262.144,1068.346,1261.92,1068.379,1261.7,1068.379z"/>
							<path style="fill:#363E44;" d="M1347.301,1079.374c-0.915,0-1.77-0.574-2.084-1.487c-0.396-1.151,0.213-2.406,1.365-2.803
								c4.597-1.587,9.063-3.605,13.272-6.001c6.109-3.476,11.745-7.772,16.758-12.77c0.863-0.861,2.259-0.857,3.118,0.004
								c0.859,0.862,0.859,2.258-0.004,3.118c-5.29,5.275-11.242,9.811-17.693,13.481c-4.444,2.529-9.157,4.662-14.013,6.337
								C1347.781,1079.335,1347.54,1079.374,1347.301,1079.374z"/>
							<path style="fill:#363E44;" d="M1366.969,1098.923c-0.915,0-1.77-0.574-2.084-1.487c-0.396-1.151,0.213-2.406,1.365-2.803
								c4.593-1.585,9.058-3.603,13.274-6.001c6.109-3.476,11.745-7.772,16.758-12.77c0.864-0.86,2.259-0.858,3.118,0.004
								c0.859,0.862,0.859,2.258-0.004,3.118c-5.29,5.275-11.242,9.811-17.692,13.481c-4.45,2.532-9.166,4.664-14.015,6.337
								C1367.45,1098.883,1367.208,1098.923,1366.969,1098.923z"/>
							<path style="fill:#363E44;" d="M1374.615,1131.783c-0.915,0-1.77-0.574-2.084-1.487c-0.396-1.151,0.213-2.406,1.365-2.803
								c4.595-1.586,9.058-3.605,13.272-6.002c6.106-3.474,11.743-7.771,16.758-12.77c0.863-0.861,2.259-0.857,3.118,0.004
								c0.859,0.862,0.859,2.258-0.004,3.118c-5.292,5.277-11.244,9.813-17.692,13.481c-4.446,2.531-9.162,4.664-14.013,6.338
								C1375.095,1131.743,1374.854,1131.783,1374.615,1131.783z"/>
						</g>
					</g>
				</g>
				<path style="fill:#EFBC73;" d="M336.545,1319.923c34.806-37.925,200.705-186.552,424.923-149.87
					c129.3,21.154,211.451,58.272,258.955,88.398c-47.421,85.811-62.779,104.804-89.531,138.095
					c13.673,69.553,27.345,139.106,41.018,208.659c-101.654-0.892-429.801-10.701-533.238-14.268
					c18.428-58.852,36.857-90.334,55.285-149.187c-14.267,11.889-11.716-28.604-25.983-16.714
					C434.981,1370.023,387.35,1346.052,336.545,1319.923z"/>
				<g>
					<g>
						<g>
							<polygon style="fill:#FFFFFF;" points="706.608,1908.031 518.227,1819.353 717.725,1618.543 906.106,1707.221 							"/>
						</g>
					</g>
					<g>
						<path style="fill:#9D6C5B;" d="M365.315,1333.742c-15.817,75.229-80.859,276.059,59.994,311.018
							c53.137,13.188,78.34-142.86,98.89-216.545C475.375,1392.257,416.384,1362.713,365.315,1333.742z"/>
						<g>
							<path style="fill:#9D6C5B;" d="M490.612,1517.606c55.515,44.888,191.483,144.127,204.37,154.343
								c24.09,19.097,150.712,124.939,137.42,144.866c-6.351,9.522-31.667-9.767-40.035-16.536
								c4.063,8.8,23.328,40.902,13.683,49.364c-11.331,9.942-40.143-24.797-40.932-25.055c5.033,8.517,26.454,41.634,19.47,48.26
								c-9.086,8.62-38.254-16.212-46.642-24.05c-0.19,1.967,24.719,30.437,14.323,41.175c-7.633,7.884-34.357-14.939-45.98-24.806
								c-21.417-16.95-281.164-200.612-325.079-240.91C364.018,1608.483,452.182,1517.841,490.612,1517.606z"/>
							<path style="fill:#363E44;" d="M613.122,1612.311c-0.461,0-0.928-0.144-1.324-0.445
								c-28.951-21.822-103.814-79.644-121.864-93.909c-0.956-0.756-1.117-2.142-0.362-3.097c0.756-0.953,2.14-1.118,3.096-0.363
								c18.037,14.257,92.85,72.04,121.782,93.849c0.973,0.732,1.167,2.115,0.435,3.088
								C614.45,1612.008,613.791,1612.311,613.122,1612.311z"/>
							<g>
								<path style="fill:#363E44;" d="M793.374,1801.827c-0.741,0-1.464-0.372-1.88-1.051c-3.32-5.399-7.039-10.609-11.054-15.482
									c-7.219-8.759-15.552-16.648-24.77-23.448c-0.98-0.722-1.189-2.104-0.465-3.083c0.724-0.98,2.104-1.188,3.083-0.465
									c9.508,7.014,18.106,15.153,25.554,24.193c4.145,5.03,7.984,10.405,11.407,15.977c0.639,1.037,0.314,2.394-0.723,3.033
									C794.167,1801.722,793.768,1801.827,793.374,1801.827z"/>
								<path style="fill:#363E44;" d="M766.089,1826.555c-0.659,0-1.311-0.294-1.744-0.854c-0.814-1.051-1.658-2.106-2.532-3.167
									c-7.22-8.762-15.552-16.651-24.768-23.449c-0.98-0.722-1.189-2.103-0.465-3.083c0.724-0.98,2.104-1.189,3.083-0.465
									c9.506,7.013,18.104,15.152,25.551,24.193c0.904,1.095,1.774,2.187,2.614,3.27c0.747,0.964,0.571,2.348-0.392,3.094
									C767.037,1826.405,766.561,1826.555,766.089,1826.555z"/>
								<path style="fill:#363E44;" d="M737.569,1850.282c-0.573,0-1.143-0.222-1.576-0.662c-5.187-5.3-10.869-10.238-16.885-14.676
									c-0.98-0.722-1.189-2.103-0.465-3.083c0.723-0.98,2.104-1.188,3.083-0.465c6.205,4.578,12.066,9.671,17.419,15.139
									c0.851,0.871,0.835,2.266-0.034,3.119C738.682,1850.073,738.125,1850.282,737.569,1850.282z"/>
							</g>
						</g>
					</g>
				</g>
				<g>
					<path style="fill:#F7F1EB;" d="M613.277,1251.476c-12.854,0-24.408-14.004-26.195-32.252
						c-0.889-9.089,0.732-17.902,4.569-24.817c3.983-7.181,9.874-11.497,16.586-12.153c13.498-1.337,26.055,13.105,27.922,32.166
						c1.867,19.061-7.624,35.646-21.155,36.972l0,0C614.426,1251.448,613.849,1251.476,613.277,1251.476z M614.788,1249.197h0.022
						H614.788z M610,1186.577c-0.443,0-0.887,0.022-1.333,0.065c-5.228,0.511-9.9,4.03-13.16,9.904
						c-3.406,6.14-4.84,14.042-4.037,22.247c1.63,16.643,12.002,29.291,23.103,28.209c11.112-1.089,18.827-15.512,17.197-32.153
						C630.207,1198.877,620.595,1186.577,610,1186.577z"/>
					<path style="fill:#F7F1EB;" d="M634.987,1289.631c-9.741,0-20.933-6.065-28.9-16.697c-11.481-15.328-11.971-34.429-1.094-42.58
						c10.875-8.151,29.072-2.316,40.561,13.014c11.483,15.326,11.974,34.428,1.094,42.581l0,0
						C643.315,1288.446,639.291,1289.631,634.987,1289.631z M616.771,1231.018c-3.398,0-6.539,0.921-9.134,2.865
						c-8.931,6.693-8.044,23.026,1.981,36.407c10.025,13.38,25.45,18.824,34.386,12.129l0,0c8.933-6.694,8.046-23.027-1.981-36.407
						C634.909,1236.516,625.076,1231.018,616.771,1231.018z M645.326,1284.184h0.022H645.326z"/>
					<path style="fill:#F7F1EB;" d="M671.39,1320.368c-7.362,0-15.249-2.354-22.421-6.724
						c-16.355-9.965-23.906-27.517-16.836-39.127c7.073-11.612,26.135-12.949,42.492-2.984c7.799,4.751,13.866,11.345,17.087,18.568
						c3.344,7.499,3.253,14.802-0.256,20.56c-3.507,5.758-9.954,9.186-18.151,9.654
						C672.671,1320.35,672.032,1320.368,671.39,1320.368z M652.139,1269.193c-7.123,0-13.16,2.564-16.239,7.618
						c-5.807,9.533,1.085,24.367,15.365,33.067c7.041,4.29,14.799,6.439,21.79,6.033c6.707-0.382,11.907-3.062,14.639-7.546l0,0
						c2.732-4.484,2.73-10.333-0.007-16.469c-2.861-6.413-8.313-12.307-15.356-16.598
						C665.62,1271.21,658.452,1269.193,652.139,1269.193z"/>
					<path style="fill:#F7F1EB;" d="M710.896,1328.971c-0.861,0-1.729-0.023-2.601-0.068c-9.121-0.474-17.593-3.391-23.861-8.214
						c-6.507-5.008-9.896-11.475-9.547-18.209c0.349-6.734,4.392-12.814,11.384-17.122c6.731-4.147,15.436-6.174,24.582-5.698
						c9.119,0.473,17.593,3.39,23.859,8.214c6.507,5.008,9.898,11.475,9.549,18.209l0,0c-0.349,6.734-4.392,12.814-11.384,17.122
						C726.788,1326.957,719.065,1328.971,710.896,1328.971z M708.239,1284.002c-7.351,0-14.258,1.784-19.656,5.11
						c-5.721,3.525-9.02,8.353-9.291,13.596c-0.273,5.244,2.508,10.389,7.833,14.486c5.564,4.283,13.162,6.877,21.398,7.306
						c8.225,0.419,16.062-1.365,22.042-5.049c5.721-3.525,9.019-8.353,9.291-13.596l0,0c0.273-5.244-2.508-10.389-7.833-14.486
						c-5.564-4.284-13.164-6.878-21.398-7.306C709.826,1284.022,709.029,1284.002,708.239,1284.002z"/>
					<path style="fill:#F7F1EB;" d="M751.941,1324.615c-3.529,0-6.944-0.446-10.124-1.345c-7.902-2.233-13.453-6.978-15.63-13.36
						c-2.177-6.382-0.683-13.529,4.207-20.125c4.711-6.352,12.064-11.474,20.707-14.422c18.136-6.183,36.446-0.744,40.834,12.122
						l0,0c4.388,12.867-6.789,28.365-24.914,34.548C761.99,1323.75,756.855,1324.615,751.941,1324.615z M766.251,1277.183
						c-4.364,0-9.043,0.757-13.724,2.353c-7.805,2.662-14.407,7.234-18.588,12.876c-4.003,5.397-5.273,11.106-3.578,16.075
						c1.695,4.969,6.19,8.713,12.656,10.54c6.757,1.911,14.777,1.494,22.58-1.166c15.828-5.398,25.771-18.386,22.167-28.952l0,0
						C785.224,1281.47,776.636,1277.183,766.251,1277.183z"/>
					<path style="fill:#F7F1EB;" d="M790.775,1298.854c-3.759,0-7.321-0.956-10.41-2.976c-11.379-7.439-12.114-26.533-1.634-42.564
						c10.477-16.03,28.26-23.021,39.642-15.583l0,0c11.379,7.439,12.114,26.533,1.634,42.565
						C812.373,1291.973,800.863,1298.854,790.775,1298.854z M807.828,1239.11c-8.552,0-18.607,6.216-25.407,16.618
						c-9.149,13.995-8.989,30.352,0.355,36.46c9.349,6.107,24.391-0.312,33.539-14.307c9.149-13.995,8.989-30.352-0.355-36.46l0,0
						C813.56,1239.853,810.782,1239.11,807.828,1239.11z"/>
					<path style="fill:#F7F1EB;" d="M816.09,1255.625c-1.165,0-2.334-0.114-3.499-0.348c-13.328-2.68-21.101-20.135-17.328-38.913
						c3.774-18.774,17.656-31.872,31.016-29.194l0,0c13.328,2.68,21.101,20.135,17.328,38.913
						C840.162,1243.219,828.272,1255.625,816.09,1255.625z M822.702,1191.225c-10.085,0-20.093,10.964-23.116,26.01
						c-3.294,16.393,2.93,31.519,13.875,33.719c10.938,2.202,22.528-9.349,25.823-25.741c3.294-16.393-2.93-31.519-13.875-33.719
						C824.511,1191.313,823.607,1191.225,822.702,1191.225z"/>
				</g>
			</g>
			<g>
				<path style="fill:#363E44;" d="M539.766,1058.595c-64.975,0-117.837-52.862-117.837-117.837
					c0-64.977,52.862-117.838,117.837-117.838s117.837,52.862,117.837,117.838C657.603,1005.734,604.742,1058.595,539.766,1058.595z
					 M539.766,827.33c-62.545,0-113.428,50.884-113.428,113.429s50.883,113.428,113.428,113.428
					c62.545,0,113.428-50.883,113.428-113.428S602.311,827.33,539.766,827.33z"/>
				<circle style="fill:#363E44;" cx="560.462" cy="891.366" r="144.079"/>
				
					<ellipse transform="matrix(0.7071 -0.7071 0.7071 0.7071 -501.0208 797.4985)" style="fill:#363E44;" cx="712.155" cy="1003.535" rx="97.201" ry="97.201"/>
				<path style="fill:#9D6C5B;" d="M791.626,1122.607c-21.477,15.253-82.148-26.158-82.148-26.158l-34.713-72.608
					c0-37.059,30.042-67.1,67.1-67.1h0c37.058,0,67.1,30.042,67.1,67.1C808.967,1023.841,813.501,1107.072,791.626,1122.607z"/>
				<ellipse style="fill:#9D6C5B;" cx="719.211" cy="1196.468" rx="77.701" ry="31.857"/>
				<rect x="674.766" y="1023.087" style="fill:#9D6C5B;" width="82.933" height="169.639"/>
				<path style="fill:#9D6C5B;" d="M801.255,1041.485c0,0,18.821,19.719,17.82,24.925c-1.195,6.214-22.16,10.005-22.16,10.005
					S801.756,1041.533,801.255,1041.485z"/>
				<g>
					<path style="fill:#FFFFFF;" d="M734.041,1033.934c0,0,12.312-6.622,27.153-6.621c3.158,0-2.8,25.268-5.797,23.837
						C742.218,1044.859,734.041,1033.934,734.041,1033.934z"/>
					<g>
						<defs>
							<path id="SVGID_1_" d="M734.041,1033.934c0,0,18.108-9.739,36.875-5.594c18.767,4.146,31.088,20.607,31.088,20.607
								s-18.108,9.739-36.875,5.594C746.361,1050.394,734.041,1033.934,734.041,1033.934z"/>
						</defs>
						<clipPath id="SVGID_00000023996314815675555830000006238623843849670052_">
							<use xlink:href="#SVGID_1_"  style="overflow:visible;"/>
						</clipPath>
						
							<circle style="clip-path:url(#SVGID_00000023996314815675555830000006238623843849670052_);fill:#363E44;" cx="779.595" cy="1044.436" r="25.135"/>
					</g>
				</g>
				<path style="fill:#363E44;" d="M777.447,1090.297c-2.371,0-4.737-0.669-6.795-2.005c-3.966-2.574-6.167-7.286-5.607-12.005
					c0.144-1.208,1.234-2.056,2.45-1.929c1.208,0.144,2.073,1.24,1.929,2.45c-0.364,3.063,1.059,6.118,3.628,7.785
					c2.661,1.727,6.123,1.728,8.819-0.005c1.027-0.656,2.392-0.362,3.047,0.663c0.659,1.024,0.362,2.388-0.661,3.047
					C782.184,1089.631,779.814,1090.297,777.447,1090.297z"/>
				<path style="fill:#363E44;" d="M658.435,1041.485c0,0,21.395-8.587,43.481,14.082l14.316-7.839c0,0-8.292-91.307,91.782-55.418
					c0,0-34.321-76.674-101.267-48.517C639.801,971.951,658.435,1041.485,658.435,1041.485z"/>
				<path style="fill:#FFFFFF;" d="M682.163,1056.337c50.41,1.808,101.138,3.849,135.745-5.887
					c3.886,3.045,5.777,6.403,5.553,10.093c-3.766,25.188-14.502,68.41-22.598,68.813c-40.252,3.383-60.25-10.271-85.07-26.66
					C699.769,1089.822,693.408,1073.586,682.163,1056.337z"/>
				<path style="fill:#363E44;" d="M771.024,1128.561c-0.127,0-0.258-0.011-0.387-0.035c-26.439-4.705-60.945-28.104-62.4-29.098
					c-1.005-0.687-1.266-2.058-0.579-3.064c0.685-1.005,2.061-1.265,3.064-0.579c0.349,0.239,35.187,23.861,60.686,28.4
					c1.199,0.213,1.998,1.358,1.785,2.557C773.003,1127.811,772.073,1128.561,771.024,1128.561z"/>
				<g>
					<path style="fill:#9D6C5B;" d="M657.59,1057.528c3.915,13.111,16.33,20.98,27.731,17.576
						c11.401-3.404,17.469-16.792,13.555-29.903c-3.914-13.111-16.33-20.98-27.731-17.575
						C659.744,1031.029,653.675,1044.417,657.59,1057.528z"/>
					<path style="fill:#363E44;" d="M689.982,1049.64c-0.95,0-1.828-0.619-2.112-1.575c-1.888-6.322-7.771-10.162-13.119-8.572
						c-3.163,0.945-5.589,3.674-6.487,7.302c-0.293,1.183-1.496,1.898-2.67,1.611c-1.182-0.293-1.903-1.488-1.61-2.67
						c1.277-5.159,4.832-9.072,9.506-10.468c7.669-2.293,16.021,2.883,18.605,11.534c0.349,1.167-0.314,2.395-1.481,2.743
						C690.402,1049.609,690.191,1049.64,689.982,1049.64z"/>
				</g>
				<path style="fill:#EFBC73;" d="M679.187,1110.3c-12.245,0-22.208-9.963-22.208-22.208c0-12.245,9.963-22.208,22.208-22.208
					c12.245,0,22.207,9.963,22.207,22.208C701.394,1100.338,691.431,1110.3,679.187,1110.3z M679.187,1070.295
					c-9.814,0-17.798,7.984-17.798,17.798c0,9.814,7.984,17.798,17.798,17.798c9.814,0,17.798-7.984,17.798-17.798
					C696.984,1078.279,689,1070.295,679.187,1070.295z"/>
			</g>
		</g>
		<g>
			<g>
				<rect x="1049.889" y="1696.89" style="fill:#FFFFFF;" width="534.476" height="461.4"/>
				<path style="fill:#D3BBA3;" d="M1584.366,2160.495h-534.477c-1.219,0-2.205-0.987-2.205-2.205v-461.4
					c0-1.218,0.986-2.205,2.205-2.205h534.477c1.219,0,2.205,0.987,2.205,2.205v461.4
					C1586.571,2159.508,1585.585,2160.495,1584.366,2160.495z M1052.094,2156.085h530.068v-456.991h-530.068V2156.085z"/>
			</g>
			<g>
				<path style="fill:#E6D0BE;" d="M1556.907,1852.114h-59.737c-1.219,0-2.205-0.987-2.205-2.205v-59.737
					c0-1.218,0.986-2.205,2.205-2.205h59.737c1.219,0,2.205,0.987,2.205,2.205v59.737
					C1559.112,1851.127,1558.126,1852.114,1556.907,1852.114z M1499.375,1847.704h55.327v-55.327h-55.327V1847.704z"/>
				<path style="fill:#E6D0BE;" d="M1486.383,1852.114h-59.737c-1.219,0-2.205-0.987-2.205-2.205v-59.737
					c0-1.218,0.986-2.205,2.205-2.205h59.737c1.219,0,2.205,0.987,2.205,2.205v59.737
					C1488.588,1851.127,1487.602,1852.114,1486.383,1852.114z M1428.851,1847.704h55.327v-55.327h-55.327V1847.704z"/>
				<path style="fill:#E6D0BE;" d="M1415.861,1852.114h-59.737c-1.219,0-2.205-0.987-2.205-2.205v-59.737
					c0-1.218,0.986-2.205,2.205-2.205h59.737c1.219,0,2.205,0.987,2.205,2.205v59.737
					C1418.066,1851.127,1417.08,1852.114,1415.861,1852.114z M1358.329,1847.704h55.327v-55.327h-55.327V1847.704z"/>
				<path style="fill:#E6D0BE;" d="M1345.339,1852.114h-59.737c-1.219,0-2.205-0.987-2.205-2.205v-59.737
					c0-1.218,0.986-2.205,2.205-2.205h59.737c1.219,0,2.205,0.987,2.205,2.205v59.737
					C1347.544,1851.127,1346.558,1852.114,1345.339,1852.114z M1287.807,1847.704h55.327v-55.327h-55.327V1847.704z"/>
				<path style="fill:#E6D0BE;" d="M1274.817,1852.114h-59.737c-1.219,0-2.205-0.987-2.205-2.205v-59.737
					c0-1.218,0.986-2.205,2.205-2.205h59.737c1.219,0,2.205,0.987,2.205,2.205v59.737
					C1277.022,1851.127,1276.036,1852.114,1274.817,1852.114z M1217.285,1847.704h55.327v-55.327h-55.327V1847.704z"/>
				<path style="fill:#E6D0BE;" d="M1204.293,1852.114h-59.737c-1.219,0-2.205-0.987-2.205-2.205v-59.737
					c0-1.218,0.986-2.205,2.205-2.205h59.737c1.219,0,2.205,0.987,2.205,2.205v59.737
					C1206.498,1851.127,1205.512,1852.114,1204.293,1852.114z M1146.761,1847.704h55.327v-55.327h-55.327V1847.704z"/>
				<path style="fill:#E6D0BE;" d="M1133.816,1852.114h-59.737c-1.219,0-2.205-0.987-2.205-2.205v-59.737
					c0-1.218,0.986-2.205,2.205-2.205h59.737c1.219,0,2.205,0.987,2.205,2.205v59.737
					C1136.021,1851.127,1135.035,1852.114,1133.816,1852.114z M1076.284,1847.704h55.327v-55.327h-55.327V1847.704z"/>
				<path style="fill:#E6D0BE;" d="M1556.907,1922.155h-59.737c-1.219,0-2.205-0.987-2.205-2.205v-59.737
					c0-1.218,0.986-2.205,2.205-2.205h59.737c1.219,0,2.205,0.987,2.205,2.205v59.737
					C1559.112,1921.168,1558.126,1922.155,1556.907,1922.155z M1499.375,1917.745h55.327v-55.327h-55.327V1917.745z"/>
				<rect x="1426.647" y="1860.213" style="fill:#D87355;" width="59.737" height="59.737"/>
				<path style="fill:#E6D0BE;" d="M1415.861,1922.155h-59.737c-1.219,0-2.205-0.987-2.205-2.205v-59.737
					c0-1.218,0.986-2.205,2.205-2.205h59.737c1.219,0,2.205,0.987,2.205,2.205v59.737
					C1418.066,1921.168,1417.08,1922.155,1415.861,1922.155z M1358.329,1917.745h55.327v-55.327h-55.327V1917.745z"/>
				<path style="fill:#E6D0BE;" d="M1345.339,1922.155h-59.737c-1.219,0-2.205-0.987-2.205-2.205v-59.737
					c0-1.218,0.986-2.205,2.205-2.205h59.737c1.219,0,2.205,0.987,2.205,2.205v59.737
					C1347.544,1921.168,1346.558,1922.155,1345.339,1922.155z M1287.807,1917.745h55.327v-55.327h-55.327V1917.745z"/>
				<path style="fill:#E6D0BE;" d="M1274.817,1922.155h-59.737c-1.219,0-2.205-0.987-2.205-2.205v-59.737
					c0-1.218,0.986-2.205,2.205-2.205h59.737c1.219,0,2.205,0.987,2.205,2.205v59.737
					C1277.022,1921.168,1276.036,1922.155,1274.817,1922.155z M1217.285,1917.745h55.327v-55.327h-55.327V1917.745z"/>
				<path style="fill:#E6D0BE;" d="M1204.293,1922.155h-59.737c-1.219,0-2.205-0.987-2.205-2.205v-59.737
					c0-1.218,0.986-2.205,2.205-2.205h59.737c1.219,0,2.205,0.987,2.205,2.205v59.737
					C1206.498,1921.168,1205.512,1922.155,1204.293,1922.155z M1146.761,1917.745h55.327v-55.327h-55.327V1917.745z"/>
				<path style="fill:#E6D0BE;" d="M1133.771,1922.155h-59.737c-1.219,0-2.205-0.987-2.205-2.205v-59.737
					c0-1.218,0.986-2.205,2.205-2.205h59.737c1.219,0,2.205,0.987,2.205,2.205v59.737
					C1135.976,1921.168,1134.99,1922.155,1133.771,1922.155z M1076.239,1917.745h55.327v-55.327h-55.327V1917.745z"/>
				<path style="fill:#E6D0BE;" d="M1556.907,1992.196h-59.737c-1.219,0-2.205-0.987-2.205-2.205v-59.737
					c0-1.218,0.986-2.205,2.205-2.205h59.737c1.219,0,2.205,0.987,2.205,2.205v59.737
					C1559.112,1991.208,1558.126,1992.196,1556.907,1992.196z M1499.375,1987.786h55.327v-55.327h-55.327V1987.786z"/>
				<path style="fill:#E6D0BE;" d="M1486.383,1992.196h-59.737c-1.219,0-2.205-0.987-2.205-2.205v-59.737
					c0-1.218,0.986-2.205,2.205-2.205h59.737c1.219,0,2.205,0.987,2.205,2.205v59.737
					C1488.588,1991.208,1487.602,1992.196,1486.383,1992.196z M1428.851,1987.786h55.327v-55.327h-55.327V1987.786z"/>
				<path style="fill:#E6D0BE;" d="M1415.861,1992.196h-59.737c-1.219,0-2.205-0.987-2.205-2.205v-59.737
					c0-1.218,0.986-2.205,2.205-2.205h59.737c1.219,0,2.205,0.987,2.205,2.205v59.737
					C1418.066,1991.208,1417.08,1992.196,1415.861,1992.196z M1358.329,1987.786h55.327v-55.327h-55.327V1987.786z"/>
				<path style="fill:#E6D0BE;" d="M1345.339,1992.196h-59.737c-1.219,0-2.205-0.987-2.205-2.205v-59.737
					c0-1.218,0.986-2.205,2.205-2.205h59.737c1.219,0,2.205,0.987,2.205,2.205v59.737
					C1347.544,1991.208,1346.558,1992.196,1345.339,1992.196z M1287.807,1987.786h55.327v-55.327h-55.327V1987.786z"/>
				<path style="fill:#E6D0BE;" d="M1274.817,1992.196h-59.737c-1.219,0-2.205-0.987-2.205-2.205v-59.737
					c0-1.218,0.986-2.205,2.205-2.205h59.737c1.219,0,2.205,0.987,2.205,2.205v59.737
					C1277.022,1991.208,1276.036,1992.196,1274.817,1992.196z M1217.285,1987.786h55.327v-55.327h-55.327V1987.786z"/>
				<path style="fill:#E6D0BE;" d="M1204.293,1992.196h-59.737c-1.219,0-2.205-0.987-2.205-2.205v-59.737
					c0-1.218,0.986-2.205,2.205-2.205h59.737c1.219,0,2.205,0.987,2.205,2.205v59.737
					C1206.498,1991.208,1205.512,1992.196,1204.293,1992.196z M1146.761,1987.786h55.327v-55.327h-55.327V1987.786z"/>
				<path style="fill:#E6D0BE;" d="M1133.771,1992.196h-59.737c-1.219,0-2.205-0.987-2.205-2.205v-59.737
					c0-1.218,0.986-2.205,2.205-2.205h59.737c1.219,0,2.205,0.987,2.205,2.205v59.737
					C1135.976,1991.208,1134.99,1992.196,1133.771,1992.196z M1076.239,1987.786h55.327v-55.327h-55.327V1987.786z"/>
				<path style="fill:#E6D0BE;" d="M1556.907,2062.236h-59.737c-1.219,0-2.205-0.987-2.205-2.205v-59.737
					c0-1.218,0.986-2.205,2.205-2.205h59.737c1.219,0,2.205,0.987,2.205,2.205v59.737
					C1559.112,2061.249,1558.126,2062.236,1556.907,2062.236z M1499.375,2057.826h55.327v-55.327h-55.327V2057.826z"/>
				<path style="fill:#E6D0BE;" d="M1486.383,2062.236h-59.737c-1.219,0-2.205-0.987-2.205-2.205v-59.737
					c0-1.218,0.986-2.205,2.205-2.205h59.737c1.219,0,2.205,0.987,2.205,2.205v59.737
					C1488.588,2061.249,1487.602,2062.236,1486.383,2062.236z M1428.851,2057.826h55.327v-55.327h-55.327V2057.826z"/>
				<path style="fill:#E6D0BE;" d="M1415.861,2062.236h-59.737c-1.219,0-2.205-0.987-2.205-2.205v-59.737
					c0-1.218,0.986-2.205,2.205-2.205h59.737c1.219,0,2.205,0.987,2.205,2.205v59.737
					C1418.066,2061.249,1417.08,2062.236,1415.861,2062.236z M1358.329,2057.826h55.327v-55.327h-55.327V2057.826z"/>
				<path style="fill:#E6D0BE;" d="M1345.339,2062.236h-59.737c-1.219,0-2.205-0.987-2.205-2.205v-59.737
					c0-1.218,0.986-2.205,2.205-2.205h59.737c1.219,0,2.205,0.987,2.205,2.205v59.737
					C1347.544,2061.249,1346.558,2062.236,1345.339,2062.236z M1287.807,2057.826h55.327v-55.327h-55.327V2057.826z"/>
				<path style="fill:#E6D0BE;" d="M1274.817,2062.236h-59.737c-1.219,0-2.205-0.987-2.205-2.205v-59.737
					c0-1.218,0.986-2.205,2.205-2.205h59.737c1.219,0,2.205,0.987,2.205,2.205v59.737
					C1277.022,2061.249,1276.036,2062.236,1274.817,2062.236z M1217.285,2057.826h55.327v-55.327h-55.327V2057.826z"/>
				<path style="fill:#E6D0BE;" d="M1204.293,2062.236h-59.737c-1.219,0-2.205-0.987-2.205-2.205v-59.737
					c0-1.218,0.986-2.205,2.205-2.205h59.737c1.219,0,2.205,0.987,2.205,2.205v59.737
					C1206.498,2061.249,1205.512,2062.236,1204.293,2062.236z M1146.761,2057.826h55.327v-55.327h-55.327V2057.826z"/>
				<path style="fill:#E6D0BE;" d="M1133.771,2062.236h-59.737c-1.219,0-2.205-0.987-2.205-2.205v-59.737
					c0-1.218,0.986-2.205,2.205-2.205h59.737c1.219,0,2.205,0.987,2.205,2.205v59.737
					C1135.976,2061.249,1134.99,2062.236,1133.771,2062.236z M1076.239,2057.826h55.327v-55.327h-55.327V2057.826z"/>
			</g>
			<g>
				
					<ellipse transform="matrix(0.2298 -0.9732 0.9732 0.2298 -479.5014 2837.4792)" style="fill:#F2E6DC;" cx="1552.901" cy="1721.677" rx="7.869" ry="7.869"/>
				
					<ellipse transform="matrix(0.2298 -0.9732 0.9732 0.2298 -515.9973 2791.365)" style="fill:#F2E6DC;" cx="1505.52" cy="1721.677" rx="7.869" ry="7.869"/>
				
					<ellipse transform="matrix(0.7071 -0.7071 0.7071 0.7071 -790.3311 1535.3268)" style="fill:#F2E6DC;" cx="1458.138" cy="1721.677" rx="7.869" ry="7.869"/>
				
					<ellipse transform="matrix(0.2298 -0.9732 0.9732 0.2298 -588.9888 2699.1362)" style="fill:#F2E6DC;" cx="1410.756" cy="1721.677" rx="7.869" ry="7.869"/>
				
					<ellipse transform="matrix(0.2298 -0.9732 0.9732 0.2298 -625.4847 2653.0217)" style="fill:#F2E6DC;" cx="1363.374" cy="1721.677" rx="7.869" ry="7.869"/>
				
					<ellipse transform="matrix(0.7071 -0.7071 0.7071 0.7071 -831.9645 1434.8146)" style="fill:#F2E6DC;" cx="1315.992" cy="1721.677" rx="7.869" ry="7.869"/>
				
					<ellipse transform="matrix(0.2298 -0.9732 0.9732 0.2298 -698.4763 2560.7932)" style="fill:#F2E6DC;" cx="1268.61" cy="1721.677" rx="7.869" ry="7.869"/>
				
					<ellipse transform="matrix(0.2298 -0.9732 0.9732 0.2298 -734.9721 2514.6787)" style="fill:#F2E6DC;" cx="1221.228" cy="1721.677" rx="7.869" ry="7.869"/>
				
					<ellipse transform="matrix(0.7071 -0.7071 0.7071 0.7071 -873.598 1334.3025)" style="fill:#F2E6DC;" cx="1173.847" cy="1721.677" rx="7.869" ry="7.869"/>
				
					<ellipse transform="matrix(0.2298 -0.9732 0.9732 0.2298 -807.9637 2422.45)" style="fill:#F2E6DC;" cx="1126.465" cy="1721.677" rx="7.869" ry="7.869"/>
				
					<ellipse transform="matrix(0.2298 -0.9732 0.9732 0.2298 -844.4595 2376.3357)" style="fill:#F2E6DC;" cx="1079.083" cy="1721.677" rx="7.869" ry="7.869"/>
				<g>
					<g>
						<path style="fill:#FFFFFF;" d="M1080.073,1677.429v43.766V1677.429z"/>
						<path style="fill:#D3BBA3;" d="M1080.074,1723.4c-1.219,0-2.205-0.987-2.205-2.205v-43.766c0-1.218,0.986-2.205,2.205-2.205
							c1.219,0,2.205,0.987,2.205,2.205v43.766C1082.279,1722.413,1081.293,1723.4,1080.074,1723.4z"/>
					</g>
					<g>
						<path style="fill:#FFFFFF;" d="M1127.35,1677.429v43.766V1677.429z"/>
						<path style="fill:#D3BBA3;" d="M1127.35,1723.4c-1.219,0-2.205-0.987-2.205-2.205v-43.766c0-1.218,0.986-2.205,2.205-2.205
							s2.205,0.987,2.205,2.205v43.766C1129.555,1722.413,1128.569,1723.4,1127.35,1723.4z"/>
					</g>
					<g>
						<path style="fill:#FFFFFF;" d="M1174.627,1677.429v43.766V1677.429z"/>
						<path style="fill:#D3BBA3;" d="M1174.627,1723.4c-1.219,0-2.205-0.987-2.205-2.205v-43.766c0-1.218,0.986-2.205,2.205-2.205
							c1.219,0,2.205,0.987,2.205,2.205v43.766C1176.832,1722.413,1175.846,1723.4,1174.627,1723.4z"/>
					</g>
					<g>
						<path style="fill:#FFFFFF;" d="M1221.903,1677.429v43.766V1677.429z"/>
						<path style="fill:#D3BBA3;" d="M1221.904,1723.4c-1.219,0-2.205-0.987-2.205-2.205v-43.766c0-1.218,0.986-2.205,2.205-2.205
							c1.219,0,2.205,0.987,2.205,2.205v43.766C1224.108,1722.413,1223.122,1723.4,1221.904,1723.4z"/>
					</g>
					<g>
						<path style="fill:#FFFFFF;" d="M1269.18,1677.429v43.766V1677.429z"/>
						<path style="fill:#D3BBA3;" d="M1269.18,1723.4c-1.219,0-2.205-0.987-2.205-2.205v-43.766c0-1.218,0.986-2.205,2.205-2.205
							c1.219,0,2.205,0.987,2.205,2.205v43.766C1271.385,1722.413,1270.399,1723.4,1269.18,1723.4z"/>
					</g>
					<g>
						<path style="fill:#FFFFFF;" d="M1316.457,1677.429v43.766V1677.429z"/>
						<path style="fill:#D3BBA3;" d="M1316.457,1723.4c-1.219,0-2.205-0.987-2.205-2.205v-43.766c0-1.218,0.986-2.205,2.205-2.205
							c1.219,0,2.205,0.987,2.205,2.205v43.766C1318.662,1722.413,1317.676,1723.4,1316.457,1723.4z"/>
					</g>
					<g>
						<path style="fill:#FFFFFF;" d="M1363.734,1677.429v43.766V1677.429z"/>
						<path style="fill:#D3BBA3;" d="M1363.733,1723.4c-1.219,0-2.205-0.987-2.205-2.205v-43.766c0-1.218,0.986-2.205,2.205-2.205
							c1.219,0,2.205,0.987,2.205,2.205v43.766C1365.938,1722.413,1364.952,1723.4,1363.733,1723.4z"/>
					</g>
					<g>
						<path style="fill:#FFFFFF;" d="M1411.011,1677.429v43.766V1677.429z"/>
						<path style="fill:#D3BBA3;" d="M1411.01,1723.4c-1.219,0-2.205-0.987-2.205-2.205v-43.766c0-1.218,0.986-2.205,2.205-2.205
							c1.219,0,2.205,0.987,2.205,2.205v43.766C1413.215,1722.413,1412.229,1723.4,1411.01,1723.4z"/>
					</g>
					<g>
						<path style="fill:#FFFFFF;" d="M1458.287,1677.429v43.766V1677.429z"/>
						<path style="fill:#D3BBA3;" d="M1458.286,1723.4c-1.219,0-2.205-0.987-2.205-2.205v-43.766c0-1.218,0.986-2.205,2.205-2.205
							s2.205,0.987,2.205,2.205v43.766C1460.491,1722.413,1459.505,1723.4,1458.286,1723.4z"/>
					</g>
					<g>
						<path style="fill:#FFFFFF;" d="M1505.564,1677.429v43.766V1677.429z"/>
						<path style="fill:#D3BBA3;" d="M1505.563,1723.4c-1.219,0-2.205-0.987-2.205-2.205v-43.766c0-1.218,0.986-2.205,2.205-2.205
							s2.205,0.987,2.205,2.205v43.766C1507.768,1722.413,1506.782,1723.4,1505.563,1723.4z"/>
					</g>
					<g>
						<path style="fill:#FFFFFF;" d="M1552.841,1677.429v43.766V1677.429z"/>
						<path style="fill:#D3BBA3;" d="M1552.842,1723.4c-1.219,0-2.205-0.987-2.205-2.205v-43.766c0-1.218,0.986-2.205,2.205-2.205
							c1.219,0,2.205,0.987,2.205,2.205v43.766C1555.047,1722.413,1554.061,1723.4,1552.842,1723.4z"/>
					</g>
				</g>
			</g>
		</g>
	</g>
</g>
</svg>
