<?xml version="1.0" encoding="utf-8"?>
<!-- Generator: Adobe Illustrator 27.5.0, SVG Export Plug-In . SVG Version: 6.00 Build 0)  -->
<svg version="1.1" xmlns="http://www.w3.org/2000/svg" xmlns:xlink="http://www.w3.org/1999/xlink" x="0px" y="0px"
	 viewBox="0 0 2500 2500" style="enable-background:new 0 0 2500 2500;" xml:space="preserve">
<g id="Background">
	<rect style="fill:#FFFFFF;" width="2500" height="2500"/>
</g>
<g id="Illustration">
	<g id="Carsharing_service_1_">
		<circle style="fill:#F2E6DC;" cx="1250" cy="1250" r="915"/>
		<g>
			<g>
				<path style="fill:#FFFFFF;" d="M846.411,1461.448H639.214v-430.743l215.109-2.452L846.411,1461.448z M643.624,1457.038h198.457
					l7.75-424.324l-206.208,2.349V1457.038z"/>
				<g>
					
						<rect x="773.083" y="1061.825" transform="matrix(-1 -1.224647e-16 1.224647e-16 -1 1591.1462 2144.8616)" style="fill:#FFFFFF;" width="44.98" height="21.212"/>
					
						<rect x="695.196" y="1061.825" transform="matrix(-1 -1.224647e-16 1.224647e-16 -1 1435.3727 2144.8616)" style="fill:#FFFFFF;" width="44.98" height="21.212"/>
					
						<rect x="773.083" y="1112.601" transform="matrix(-1 -1.224647e-16 1.224647e-16 -1 1591.1462 2246.415)" style="fill:#FFFFFF;" width="44.98" height="21.212"/>
					
						<rect x="695.196" y="1112.601" transform="matrix(-1 -1.224647e-16 1.224647e-16 -1 1435.3727 2246.415)" style="fill:#FFFFFF;" width="44.98" height="21.212"/>
					
						<rect x="773.083" y="1163.378" transform="matrix(-1 -1.224647e-16 1.224647e-16 -1 1591.1462 2347.9685)" style="fill:#FFFFFF;" width="44.98" height="21.212"/>
					
						<rect x="695.196" y="1163.378" transform="matrix(-1 -1.224647e-16 1.224647e-16 -1 1435.3727 2347.9685)" style="fill:#FFFFFF;" width="44.98" height="21.212"/>
					
						<rect x="773.083" y="1214.155" transform="matrix(-1 -1.224647e-16 1.224647e-16 -1 1591.1462 2449.522)" style="fill:#FFFFFF;" width="44.98" height="21.212"/>
					
						<rect x="695.196" y="1214.155" transform="matrix(-1 -1.224647e-16 1.224647e-16 -1 1435.3727 2449.522)" style="fill:#FFFFFF;" width="44.98" height="21.212"/>
					
						<rect x="773.083" y="1264.932" transform="matrix(-1 -1.224647e-16 1.224647e-16 -1 1591.1462 2551.0754)" style="fill:#FFFFFF;" width="44.98" height="21.212"/>
					
						<rect x="695.196" y="1264.932" transform="matrix(-1 -1.224647e-16 1.224647e-16 -1 1435.3727 2551.0754)" style="fill:#FFFFFF;" width="44.98" height="21.212"/>
				</g>
			</g>
			<g>
				
					<rect x="419.571" y="981.225" transform="matrix(-1 -1.224647e-16 1.224647e-16 -1 1093.0947 2542.2913)" style="fill:#E6D0BE;" width="253.953" height="579.842"/>
				<g>
					
						<rect x="623.979" y="1019.857" transform="matrix(-1 -1.224647e-16 1.224647e-16 -1 1268.1226 2073.3423)" style="fill:#F2E6DC;" width="20.164" height="33.627"/>
					
						<rect x="566.222" y="1019.857" transform="matrix(-1 -1.224647e-16 1.224647e-16 -1 1152.6082 2073.3423)" style="fill:#F2E6DC;" width="20.164" height="33.627"/>
					
						<rect x="508.465" y="1019.857" transform="matrix(-1 -1.224647e-16 1.224647e-16 -1 1037.0939 2073.3423)" style="fill:#F2E6DC;" width="20.164" height="33.627"/>
					
						<rect x="450.708" y="1019.857" transform="matrix(-1 -1.224647e-16 1.224647e-16 -1 921.5796 2073.3423)" style="fill:#F2E6DC;" width="20.164" height="33.627"/>
					
						<rect x="623.979" y="1093.593" transform="matrix(-1 -1.224647e-16 1.224647e-16 -1 1268.1226 2220.814)" style="fill:#F2E6DC;" width="20.164" height="33.627"/>
					
						<rect x="566.222" y="1093.593" transform="matrix(-1 -1.224647e-16 1.224647e-16 -1 1152.6082 2220.814)" style="fill:#F2E6DC;" width="20.164" height="33.627"/>
					
						<rect x="508.465" y="1093.593" transform="matrix(-1 -1.224647e-16 1.224647e-16 -1 1037.0939 2220.814)" style="fill:#F2E6DC;" width="20.164" height="33.627"/>
					
						<rect x="450.708" y="1093.593" transform="matrix(-1 -1.224647e-16 1.224647e-16 -1 921.5796 2220.814)" style="fill:#F2E6DC;" width="20.164" height="33.627"/>
					
						<rect x="623.979" y="1167.329" transform="matrix(-1 -1.224647e-16 1.224647e-16 -1 1268.1226 2368.2859)" style="fill:#F2E6DC;" width="20.164" height="33.627"/>
					
						<rect x="566.222" y="1167.329" transform="matrix(-1 -1.224647e-16 1.224647e-16 -1 1152.6082 2368.2859)" style="fill:#F2E6DC;" width="20.164" height="33.627"/>
					
						<rect x="508.465" y="1167.329" transform="matrix(-1 -1.224647e-16 1.224647e-16 -1 1037.0939 2368.2859)" style="fill:#F2E6DC;" width="20.164" height="33.627"/>
					
						<rect x="450.708" y="1167.329" transform="matrix(-1 -1.224647e-16 1.224647e-16 -1 921.5796 2368.2859)" style="fill:#F2E6DC;" width="20.164" height="33.627"/>
					
						<rect x="623.979" y="1241.065" transform="matrix(-1 -1.224647e-16 1.224647e-16 -1 1268.1226 2515.7576)" style="fill:#F2E6DC;" width="20.164" height="33.627"/>
					
						<rect x="566.222" y="1241.065" transform="matrix(-1 -1.224647e-16 1.224647e-16 -1 1152.6082 2515.7576)" style="fill:#F2E6DC;" width="20.164" height="33.627"/>
					
						<rect x="508.465" y="1241.065" transform="matrix(-1 -1.224647e-16 1.224647e-16 -1 1037.0939 2515.7576)" style="fill:#F2E6DC;" width="20.164" height="33.627"/>
					
						<rect x="450.708" y="1241.065" transform="matrix(-1 -1.224647e-16 1.224647e-16 -1 921.5796 2515.7576)" style="fill:#F2E6DC;" width="20.164" height="33.627"/>
					
						<rect x="623.979" y="1314.801" transform="matrix(-1 -1.224647e-16 1.224647e-16 -1 1268.1226 2663.2295)" style="fill:#F2E6DC;" width="20.164" height="33.627"/>
					
						<rect x="566.222" y="1314.801" transform="matrix(-1 -1.224647e-16 1.224647e-16 -1 1152.6082 2663.2295)" style="fill:#F2E6DC;" width="20.164" height="33.627"/>
					
						<rect x="508.465" y="1314.801" transform="matrix(-1 -1.224647e-16 1.224647e-16 -1 1037.0939 2663.2295)" style="fill:#F2E6DC;" width="20.164" height="33.627"/>
					
						<rect x="450.708" y="1314.801" transform="matrix(-1 -1.224647e-16 1.224647e-16 -1 921.5796 2663.2295)" style="fill:#F2E6DC;" width="20.164" height="33.627"/>
					
						<rect x="623.979" y="1388.537" transform="matrix(-1 -1.224647e-16 1.224647e-16 -1 1268.1226 2810.7012)" style="fill:#F2E6DC;" width="20.164" height="33.627"/>
					
						<rect x="566.222" y="1388.537" transform="matrix(-1 -1.224647e-16 1.224647e-16 -1 1152.6082 2810.7012)" style="fill:#F2E6DC;" width="20.164" height="33.627"/>
					
						<rect x="508.465" y="1388.537" transform="matrix(-1 -1.224647e-16 1.224647e-16 -1 1037.0939 2810.7012)" style="fill:#F2E6DC;" width="20.164" height="33.627"/>
					
						<rect x="450.708" y="1388.537" transform="matrix(-1 -1.224647e-16 1.224647e-16 -1 921.5796 2810.7012)" style="fill:#F2E6DC;" width="20.164" height="33.627"/>
					
						<rect x="623.979" y="1462.273" transform="matrix(-1 -1.224647e-16 1.224647e-16 -1 1268.1226 2958.1731)" style="fill:#F2E6DC;" width="20.164" height="33.627"/>
					
						<rect x="566.222" y="1462.273" transform="matrix(-1 -1.224647e-16 1.224647e-16 -1 1152.6082 2958.1731)" style="fill:#F2E6DC;" width="20.164" height="33.627"/>
					
						<rect x="508.465" y="1462.273" transform="matrix(-1 -1.224647e-16 1.224647e-16 -1 1037.0939 2958.1731)" style="fill:#F2E6DC;" width="20.164" height="33.627"/>
					
						<rect x="450.708" y="1462.273" transform="matrix(-1 -1.224647e-16 1.224647e-16 -1 921.5796 2958.1731)" style="fill:#F2E6DC;" width="20.164" height="33.627"/>
				</g>
			</g>
			<g>
				
					<rect x="338.313" y="1269.875" transform="matrix(-1 -1.224647e-16 1.224647e-16 -1 998.0022 3115.2883)" style="fill:#D3BBA3;" width="321.377" height="575.539"/>
				<g>
					<g>
						
							<rect x="596.991" y="1315.788" transform="matrix(-1 -1.224647e-16 1.224647e-16 -1 1219.4999 2671.5408)" style="fill:#F2E6DC;" width="25.518" height="39.965"/>
						
							<rect x="523.899" y="1315.788" transform="matrix(-1 -1.224647e-16 1.224647e-16 -1 1073.3165 2671.5408)" style="fill:#F2E6DC;" width="25.518" height="39.965"/>
						
							<rect x="450.808" y="1315.788" transform="matrix(-1 -1.224647e-16 1.224647e-16 -1 927.1332 2671.5408)" style="fill:#F2E6DC;" width="25.518" height="39.965"/>
						
							<rect x="377.716" y="1315.788" transform="matrix(-1 -1.224647e-16 1.224647e-16 -1 780.9499 2671.5408)" style="fill:#F2E6DC;" width="25.518" height="39.965"/>
					</g>
					<g>
						
							<rect x="596.991" y="1407.203" transform="matrix(-1 -1.224647e-16 1.224647e-16 -1 1219.4999 2854.3711)" style="fill:#F2E6DC;" width="25.518" height="39.965"/>
						
							<rect x="523.899" y="1407.203" transform="matrix(-1 -1.224647e-16 1.224647e-16 -1 1073.3165 2854.3711)" style="fill:#F2E6DC;" width="25.518" height="39.965"/>
						
							<rect x="450.808" y="1407.203" transform="matrix(-1 -1.224647e-16 1.224647e-16 -1 927.1332 2854.3711)" style="fill:#F2E6DC;" width="25.518" height="39.965"/>
						
							<rect x="377.716" y="1407.203" transform="matrix(-1 -1.224647e-16 1.224647e-16 -1 780.9499 2854.3711)" style="fill:#F2E6DC;" width="25.518" height="39.965"/>
					</g>
					<g>
						
							<rect x="596.991" y="1498.619" transform="matrix(-1 -1.224647e-16 1.224647e-16 -1 1219.4999 3037.2017)" style="fill:#F2E6DC;" width="25.518" height="39.965"/>
						
							<rect x="523.899" y="1498.619" transform="matrix(-1 -1.224647e-16 1.224647e-16 -1 1073.3165 3037.2017)" style="fill:#F2E6DC;" width="25.518" height="39.965"/>
						
							<rect x="450.808" y="1498.619" transform="matrix(-1 -1.224647e-16 1.224647e-16 -1 927.1332 3037.2017)" style="fill:#F2E6DC;" width="25.518" height="39.965"/>
						
							<rect x="377.716" y="1498.619" transform="matrix(-1 -1.224647e-16 1.224647e-16 -1 780.9499 3037.2017)" style="fill:#F2E6DC;" width="25.518" height="39.965"/>
					</g>
					<g>
						
							<rect x="596.991" y="1590.034" transform="matrix(-1 -1.224647e-16 1.224647e-16 -1 1219.4999 3220.032)" style="fill:#F2E6DC;" width="25.518" height="39.965"/>
						
							<rect x="523.899" y="1590.034" transform="matrix(-1 -1.224647e-16 1.224647e-16 -1 1073.3165 3220.032)" style="fill:#F2E6DC;" width="25.518" height="39.965"/>
						
							<rect x="450.808" y="1590.034" transform="matrix(-1 -1.224647e-16 1.224647e-16 -1 927.1332 3220.032)" style="fill:#F2E6DC;" width="25.518" height="39.965"/>
						
							<rect x="377.716" y="1590.034" transform="matrix(-1 -1.224647e-16 1.224647e-16 -1 780.9499 3220.032)" style="fill:#F2E6DC;" width="25.518" height="39.965"/>
					</g>
					<g>
						
							<rect x="596.991" y="1681.449" transform="matrix(-1 -1.224647e-16 1.224647e-16 -1 1219.4999 3402.8623)" style="fill:#F2E6DC;" width="25.518" height="39.965"/>
						
							<rect x="523.899" y="1681.449" transform="matrix(-1 -1.224647e-16 1.224647e-16 -1 1073.3165 3402.8623)" style="fill:#F2E6DC;" width="25.518" height="39.965"/>
						
							<rect x="450.808" y="1681.449" transform="matrix(-1 -1.224647e-16 1.224647e-16 -1 927.1332 3402.8623)" style="fill:#F2E6DC;" width="25.518" height="39.965"/>
						
							<rect x="377.716" y="1681.449" transform="matrix(-1 -1.224647e-16 1.224647e-16 -1 780.9499 3402.8623)" style="fill:#F2E6DC;" width="25.518" height="39.965"/>
					</g>
				</g>
			</g>
			<g>
				
					<rect x="548.205" y="1418.432" transform="matrix(-1 -1.224647e-16 1.224647e-16 -1 1310.8121 3172.6467)" style="fill:#F7F1EB;" width="214.402" height="335.783"/>
				<g>
					
						<rect x="720.779" y="1449.062" transform="matrix(-1 -1.224647e-16 1.224647e-16 -1 1458.5813 2924.7864)" style="fill:#E6D0BE;" width="17.024" height="26.662"/>
					
						<rect x="672.017" y="1449.062" transform="matrix(-1 -1.224647e-16 1.224647e-16 -1 1361.0571 2924.7864)" style="fill:#E6D0BE;" width="17.024" height="26.662"/>
					
						<rect x="623.254" y="1449.062" transform="matrix(-1 -1.224647e-16 1.224647e-16 -1 1263.5328 2924.7864)" style="fill:#E6D0BE;" width="17.024" height="26.662"/>
					
						<rect x="574.492" y="1449.062" transform="matrix(-1 -1.224647e-16 1.224647e-16 -1 1166.0085 2924.7864)" style="fill:#E6D0BE;" width="17.024" height="26.662"/>
					
						<rect x="720.779" y="1510.049" transform="matrix(-1 -1.224647e-16 1.224647e-16 -1 1458.5813 3046.7593)" style="fill:#E6D0BE;" width="17.024" height="26.662"/>
					
						<rect x="672.017" y="1510.049" transform="matrix(-1 -1.224647e-16 1.224647e-16 -1 1361.0571 3046.7593)" style="fill:#E6D0BE;" width="17.024" height="26.662"/>
					
						<rect x="623.254" y="1510.049" transform="matrix(-1 -1.224647e-16 1.224647e-16 -1 1263.5328 3046.7593)" style="fill:#E6D0BE;" width="17.024" height="26.662"/>
					
						<rect x="574.492" y="1510.049" transform="matrix(-1 -1.224647e-16 1.224647e-16 -1 1166.0085 3046.7593)" style="fill:#E6D0BE;" width="17.024" height="26.662"/>
					
						<rect x="720.779" y="1571.035" transform="matrix(-1 -1.224647e-16 1.224647e-16 -1 1458.5813 3168.7319)" style="fill:#E6D0BE;" width="17.024" height="26.662"/>
					
						<rect x="672.017" y="1571.035" transform="matrix(-1 -1.224647e-16 1.224647e-16 -1 1361.0571 3168.7319)" style="fill:#E6D0BE;" width="17.024" height="26.662"/>
					
						<rect x="623.254" y="1571.035" transform="matrix(-1 -1.224647e-16 1.224647e-16 -1 1263.5328 3168.7319)" style="fill:#E6D0BE;" width="17.024" height="26.662"/>
					
						<rect x="574.492" y="1571.035" transform="matrix(-1 -1.224647e-16 1.224647e-16 -1 1166.0085 3168.7319)" style="fill:#E6D0BE;" width="17.024" height="26.662"/>
					
						<rect x="720.779" y="1632.021" transform="matrix(-1 -1.224647e-16 1.224647e-16 -1 1458.5813 3290.7048)" style="fill:#E6D0BE;" width="17.024" height="26.662"/>
					
						<rect x="672.017" y="1632.021" transform="matrix(-1 -1.224647e-16 1.224647e-16 -1 1361.0571 3290.7048)" style="fill:#E6D0BE;" width="17.024" height="26.662"/>
					
						<rect x="623.254" y="1632.021" transform="matrix(-1 -1.224647e-16 1.224647e-16 -1 1263.5328 3290.7048)" style="fill:#E6D0BE;" width="17.024" height="26.662"/>
					
						<rect x="574.492" y="1632.021" transform="matrix(-1 -1.224647e-16 1.224647e-16 -1 1166.0085 3290.7048)" style="fill:#E6D0BE;" width="17.024" height="26.662"/>
					
						<rect x="720.779" y="1693.008" transform="matrix(-1 -1.224647e-16 1.224647e-16 -1 1458.5813 3412.6775)" style="fill:#E6D0BE;" width="17.024" height="26.662"/>
					
						<rect x="672.017" y="1693.008" transform="matrix(-1 -1.224647e-16 1.224647e-16 -1 1361.0571 3412.6775)" style="fill:#E6D0BE;" width="17.024" height="26.662"/>
					
						<rect x="623.254" y="1693.008" transform="matrix(-1 -1.224647e-16 1.224647e-16 -1 1263.5328 3412.6775)" style="fill:#E6D0BE;" width="17.024" height="26.662"/>
					
						<rect x="574.492" y="1693.008" transform="matrix(-1 -1.224647e-16 1.224647e-16 -1 1166.0085 3412.6775)" style="fill:#E6D0BE;" width="17.024" height="26.662"/>
				</g>
			</g>
		</g>
		<g>
			<path style="fill:#E6D0BE;" d="M1738.107,1529.457c-0.503,0-1.008-0.17-1.422-0.521c-0.93-0.786-1.046-2.177-0.26-3.107
				c127.576-150.961,192.62-319.152,224.72-433.667c34.779-124.064,39.44-213.499,39.483-214.389
				c0.058-1.214,1.092-2.205,2.309-2.095c1.216,0.06,2.154,1.094,2.096,2.308c-0.044,0.896-4.732,90.828-39.643,215.366
				c-32.219,114.935-97.511,283.756-225.599,435.323C1739.356,1529.192,1738.734,1529.457,1738.107,1529.457z"/>
			<path style="fill:#E6D0BE;" d="M1996.518,936.403c0,0,52.398-39.141,17.845-162.601
				C2014.363,773.802,1932.657,869.945,1996.518,936.403z"/>
			<path style="fill:#E6D0BE;" d="M1995.656,984.364c-1.569-0.305,25.192-59.337,118.697-72.453
				C2114.353,911.911,2054.131,995.721,1995.656,984.364z"/>
			<path style="fill:#E6D0BE;" d="M1984.239,1051.455c0,0,36.674-42.286,138.848-30.426
				C2123.088,1021.029,2020.912,1083.473,1984.239,1051.455z"/>
			<path style="fill:#E6D0BE;" d="M1961.168,1126.773c-1.14-1.12,53.76-35.571,138.969,5.107
				C2100.137,1131.88,2003.659,1168.521,1961.168,1126.773z"/>
			<path style="fill:#E6D0BE;" d="M1942.223,1183.899c0,0,48.978-10.597,116.142,52.482
				C2058.365,1236.381,1951.494,1226.365,1942.223,1183.899z"/>
			<path style="fill:#E6D0BE;" d="M1983.09,985.04c1.401,0.219-3.14-57.075-77.175-96.177
				C1905.916,888.864,1930.901,976.9,1983.09,985.04z"/>
			<path style="fill:#E6D0BE;" d="M1966.569,1048.463c0,0-20.132-52.228-120.26-75.776
				C1846.309,972.687,1921.202,1066.122,1966.569,1048.463z"/>
			<path style="fill:#E6D0BE;" d="M1940.962,1126.911c1.453-0.667-38.483-51.716-132.442-42.397
				C1808.52,1084.513,1886.818,1151.745,1940.962,1126.911z"/>
			<path style="fill:#E6D0BE;" d="M1924.978,1182.361c0,0-42.468-26.603-127.063,9.915
				C1797.916,1192.276,1901.834,1219.153,1924.978,1182.361z"/>
		</g>
		<g>
			<g>
				<polygon style="fill:#E6D0BE;" points="1767.308,1857.144 1559.505,1859.577 1544.072,1843.905 1512.484,1860.128 
					1216.538,1863.593 1198.314,1845.35 1167.932,1864.162 1068.684,1865.324 1078.064,1746.211 1066.868,1710.245 
					1060.344,1153.012 1066.352,1096.873 1059.377,1070.458 1055.106,705.655 1069.085,685.703 1054.584,661.137 1053.252,547.323 
					1423.026,542.993 1437.922,569.95 1469.864,542.445 1703.155,539.713 1721.23,555.313 1751.875,539.143 1757.835,1048.129 
					1749.049,1143.571 1759.583,1197.412 1763.012,1490.268 1746.917,1509.615 1763.586,1539.273 				"/>
				<path style="fill:#363E44;" d="M1078.038,1931.957c-18.12,0-35.202-6.955-48.186-19.639
					c-13.183-12.878-20.56-30.118-20.777-48.545L993.237,511.155c-0.445-38.04,30.141-69.351,68.18-69.796l666.614-7.805
					c0.271-0.002,0.547-0.004,0.818-0.004c37.67,0,68.535,30.417,68.978,68.186l15.837,1352.616
					c0.445,38.04-30.141,69.351-68.18,69.796l-666.615,7.805C1078.594,1931.955,1078.315,1931.957,1078.038,1931.957z
					 M1728.848,437.959c-0.255,0-0.509,0.002-0.765,0.004l-666.614,7.805c-35.609,0.418-64.239,29.726-63.822,65.335
					l15.839,1352.618c0.201,17.249,7.109,33.389,19.448,45.442c12.34,12.053,28.575,18.532,45.886,18.379l666.614-7.805l0.026,2.205
					l-0.026-2.205c35.609-0.418,64.239-29.726,63.822-65.335l-15.837-1352.616C1793.004,466.435,1764.109,437.959,1728.848,437.959z
					"/>
				<g>
					<path style="fill:#363E44;" d="M1358.68,495.855c-1.206,0-2.191-0.971-2.205-2.179c-0.014-1.219,0.961-2.216,2.179-2.231
						l101.296-1.186c1.17,0.067,2.217,0.96,2.231,2.179c0.014,1.219-0.961,2.216-2.179,2.231l-101.296,1.186
						C1358.697,495.855,1358.688,495.855,1358.68,495.855z"/>
				</g>
			</g>
			<g>
				<polygon style="fill:#F2E6DC;" points="1519.183,1045.994 1388.381,1350.343 1648.4,1474.707 1749.049,1143.571 				"/>
				<polygon style="fill:#FFFFFF;" points="1216.538,1863.593 1167.932,1864.162 1703.155,539.713 1751.875,539.143 				"/>
				<polygon style="fill:#FFFFFF;" points="1559.505,1859.577 1512.484,1860.128 1757.835,1048.129 1759.583,1197.412 				"/>
				<polygon style="fill:#E6D0BE;" points="1054.799,679.544 1380.694,693.869 1312.463,974.529 1186.01,922.482 1059.377,1070.459 
									"/>
				<polygon style="fill:#FFFFFF;" points="1758.656,1118.246 1174.956,889.328 1059.377,1070.459 1060.344,1153.012 
					1193.071,945.007 1759.228,1167.045 				"/>
				<path style="fill:#D3BBA3;" d="M1066.868,1710.245l1.816,155.079l139.391-483.109c-14.16-4.46-28.035-9.937-42.757-13.314
					L1066.868,1710.245z"/>
				<path style="fill:#D3BBA3;" d="M1423.025,542.971L1220.23,1178.51c13.425,6.938,27.367,12.387,41.479,17.814l208.155-653.902
					L1423.025,542.971z"/>
				<path style="fill:#D3BBA3;" d="M1213.111,1411.497c-72.127,0.844-131.494-57.147-132.339-129.275
					c-0.845-72.127,57.148-131.495,129.276-132.34c72.127-0.845,131.494,57.149,132.339,129.277
					C1343.231,1351.286,1285.239,1410.652,1213.111,1411.497z M1210.74,1208.976c-39.543,0.463-71.337,33.01-70.874,72.555
					c0.463,39.542,33.01,71.336,72.554,70.873c39.544-0.463,71.337-33.01,70.874-72.552
					C1282.831,1240.306,1250.284,1208.513,1210.74,1208.976z"/>
				<path style="fill:#D3BBA3;" d="M1763.012,1490.268l-456.321-194.836c-8.529,12.475-15.645,25.645-22.759,38.986l479.653,204.856
					L1763.012,1490.268z"/>
				<path style="fill:#D3BBA3;" d="M1753.543,681.585l-698.959-20.448c0.289,20.607,0.334,28.514,0.521,44.519l698.958,20.393
					L1753.543,681.585z"/>
			</g>
			<g>
				<path style="fill:#D87355;" d="M1348.864,594.372c46.829-0.548,85.236,36.969,85.784,83.798
					c0.548,46.829-83.033,151.162-83.033,151.162s-86.001-102.347-86.549-149.176
					C1264.518,633.326,1302.035,594.92,1348.864,594.372z"/>
				
					<ellipse transform="matrix(0.1747 -0.9846 0.9846 0.1747 445.2872 1889.5876)" style="fill:#FFFFFF;" cx="1349.857" cy="679.162" rx="58.022" ry="58.022"/>
			</g>
		</g>
		<g>
			
				<ellipse transform="matrix(0.7071 -0.7071 0.7071 0.7071 141.2221 1479.9272)" style="fill:#8B865C;" cx="1857.041" cy="569.494" rx="213.363" ry="213.363"/>
			<path style="fill:#363E44;" d="M1863.583,789.473c-118.865,0-215.568-96.702-215.568-215.566s96.703-215.568,215.568-215.568
				c118.864,0,215.567,96.704,215.567,215.568S1982.447,789.473,1863.583,789.473z M1863.583,362.748
				c-116.433,0-211.159,94.725-211.159,211.159c0,116.431,94.725,211.157,211.159,211.157c116.432,0,211.158-94.725,211.158-211.157
				C2074.74,457.473,1980.015,362.748,1863.583,362.748z"/>
			<g>
				<path style="fill:#EFBC73;" d="M1851.487,397.123c-1.218,0-2.205-0.986-2.205-2.205v-22.694c0-1.219,0.987-2.205,2.205-2.205
					c1.218,0,2.205,0.986,2.205,2.205v22.694C1853.692,396.137,1852.705,397.123,1851.487,397.123z"/>
				<path style="fill:#EFBC73;" d="M1851.487,771.951c-1.218,0-2.205-0.986-2.205-2.205v-22.694c0-1.219,0.987-2.205,2.205-2.205
					c1.218,0,2.205,0.986,2.205,2.205v22.694C1853.692,770.965,1852.705,771.951,1851.487,771.951z"/>
				<path style="fill:#EFBC73;" d="M2049.828,571.698h-18.25c-1.218,0-2.205-0.986-2.205-2.205c0-1.219,0.987-2.205,2.205-2.205
					h18.25c1.218,0,2.205,0.986,2.205,2.205C2052.033,570.711,2051.046,571.698,2049.828,571.698z"/>
				<path style="fill:#EFBC73;" d="M1680.24,571.698h-22.695c-1.218,0-2.205-0.986-2.205-2.205c0-1.219,0.987-2.205,2.205-2.205
					h22.695c1.218,0,2.205,0.986,2.205,2.205C1682.445,570.711,1681.458,571.698,1680.24,571.698z"/>
			</g>
			<g>
				
					<ellipse transform="matrix(0.7071 -0.7071 0.7071 0.7071 140.396 1480.5796)" style="fill:#F7F1EB;" cx="1857.416" cy="570.817" rx="169.766" ry="169.766"/>
				<path style="fill:#EFBC73;" d="M1854.451,572.519l134.374,107.233c23.966-29.445,38.356-67.082,38.356-108.107
					c0-94.318-76.007-170.778-169.766-170.778c-1.55,0-3.082,0.076-4.622,0.117L1854.451,572.519z"/>
				<path style="fill:#363E44;" d="M1941.379,643.111c-0.475,0-0.952-0.153-1.354-0.465l-86.929-67.751
					c-0.536-0.418-0.849-1.059-0.849-1.74v-89.902c0-1.219,0.987-2.205,2.205-2.205c1.218,0,2.205,0.986,2.205,2.205v88.826
					l86.08,67.088c0.96,0.749,1.132,2.134,0.383,3.094C1942.685,642.82,1942.034,643.111,1941.379,643.111z"/>
			</g>
		</g>
		<g>
			<path style="fill:#D87355;" d="M823.207,1111.617c99.083-1.16,180.346,78.222,181.506,177.304
				c1.16,99.083-175.685,319.836-175.685,319.836s-181.965-216.551-183.125-315.635
				C644.743,1194.04,724.124,1112.777,823.207,1111.617z"/>
			
				<ellipse transform="matrix(0.7071 -0.7071 0.7071 0.7071 -671.1635 961.7123)" style="fill:#FFFFFF;" cx="825.308" cy="1291.022" rx="122.765" ry="122.765"/>
		</g>
		<g>
			<g>
				<g>
					<path style="fill:#D3BBA3;" d="M1755.819,2035.578c5.163,9.364,10.985,22.29,14.681,38.395
						c5.722,24.935,3.749,46.172,1.427,59.326c-58.448,0-116.896,0-175.343,0c1.214-7.823,3.221-14.78,5.647-20.931
						c23.161-58.723,97.286-76.469,114.111-80.104C1729.501,2033.369,1742.66,2034.474,1755.819,2035.578z"/>
					<path style="fill:#84524D;" d="M1776.816,1976.305l-13.346,61.883c-2.947,12.477-14.997,20.929-27.634,18.763
						c-0.723-0.124-1.459-0.274-2.206-0.453c-11.7-2.805-19.572-13.799-18.69-25.798l5.774-60.552L1776.816,1976.305z"/>
				</g>
				<g>
					<path style="fill:#E6D0BE;" d="M2105.811,2017.201c0,0,29.239,56.459,24.014,116.098c-39.216,0-78.431,0-117.647,0
						c3.066-12.855,7.75-27.842,15.057-43.892c12.524-27.508,28.146-48.021,40.819-62.04L2105.811,2017.201z"/>
					<path style="fill:#84524D;" d="M2111.064,2030.817c0.835-20.609,0.732-58.63-8.65-89.229l-68.399,20.192
						c0,0,22.444,34.123,29.539,72.234c2.146,11.523,12.386,19.861,24.076,18.993c1.533-0.114,3.131-0.312,4.789-0.61
						C2102.909,2050.505,2110.633,2041.466,2111.064,2030.817z"/>
				</g>
				<g>
					<g>
						<path style="fill:#363E44;" d="M1992.502,1414.778c0,0,128.509,200.682,130.11,587.768h-93.846
							c0,0-112.536-334.491-186.65-417.887l27.415-186.695L1992.502,1414.778z"/>
						<path style="fill:#363E44;" d="M1933.497,1626.322c0,0-118.801,195.788-146.323,376.223h-87.556
							c0,0-7.609-436.193,152.077-613.239l77.727,15.415L1933.497,1626.322z"/>
					</g>
					<path style="fill:#FFFFFF;" d="M1894.322,1663.098c-0.834,0-1.632-0.476-2.003-1.283l-49.755-108.038
						c-0.509-1.104-0.026-2.416,1.08-2.924c1.111-0.51,2.416-0.024,2.925,1.081l49.755,108.038c0.509,1.105,0.026,2.416-1.08,2.924
						C1894.944,1663.034,1894.631,1663.098,1894.322,1663.098z"/>
				</g>
			</g>
			<g>
				<path style="fill:#84524D;" d="M1880.255,1264.917c0,0-99.236,71.28-182.226-8.332l-17.628-35.769
					c0,0-20.351,55.48-5.972,109.55c14.379,54.071,73.501,64.998,154.592,48.463L1880.255,1264.917z"/>
				<path style="fill:#EFBC73;" d="M2037.609,1479.66c-50.769-31.911-157.021-92.848-232.1-95.636c0,0-8.585-66.08,66.014-125.732
					c0,0,86.183-54.894,199.97-5.637c0,0,78.979,131.718,41.157,206.396C2098.663,1486.666,2063.818,1496.134,2037.609,1479.66z"/>
				<g>
					<g>
						<path style="fill:#84524D;" d="M2069.25,1251.389c0,36.963-1.792,68.396-4.915,121.79
							c-3.586,61.333-5.226,91.172,17.514,100.251C2207.614,1523.648,2174.132,1306.711,2069.25,1251.389z"/>
					</g>
					<g>
						<path style="fill:#84524D;" d="M2093.661,1378.808c0,0-75.518-30.745-116.698-44.218
							c-43.248-14.15-109.161-28.744-111.084-19.498c-1.095,5.267,7.483,9.115,31.094,17.879c-1.637,0.751-5.949,3.828-6.163,8.88
							c-0.318,7.476,5.568,9.813,6.012,10.23c-0.576,0.21-6.714,2.639-7.775,7.607c-1.194,5.596,1.276,9.901,4.94,12.498
							c-1.412,0.564-6.41,3.175-7.289,7.98c-0.903,4.942,1.742,10.758,6.748,12.314c9.184,2.855,36.641,10.817,49.531,16.321
							c25.365,10.83,110.28,61.378,151.078,67.341C2087.236,1441.114,2093.661,1378.808,2093.661,1378.808z"/>
						<g>
							<path style="fill:#363E44;" d="M1905.031,1392.84c-0.127,0-0.256-0.011-0.385-0.034c-1.199-0.211-2-1.354-1.788-2.554
								l1.416-8.003c0.212-1.199,1.359-2,2.555-1.787c1.199,0.211,2,1.354,1.788,2.554l-1.416,8.003
								C1907.01,1392.088,1906.08,1392.84,1905.031,1392.84z"/>
							<path style="fill:#363E44;" d="M1908.801,1373.597c-0.106,0-0.211-0.006-0.318-0.021c-1.206-0.174-2.041-1.292-1.868-2.498
								l1.313-9.097c0.173-1.206,1.307-2.032,2.497-1.869c1.206,0.174,2.042,1.292,1.868,2.498l-1.313,9.097
								C1910.821,1372.805,1909.878,1373.597,1908.801,1373.597z"/>
							<path style="fill:#363E44;" d="M1911.371,1353.112c-0.128,0-0.257-0.011-0.388-0.034c-1.199-0.213-1.998-1.356-1.785-2.556
								c0.264-1.488,0.492-2.831,0.72-4.177c0.23-1.354,0.461-2.708,0.728-4.207c0.212-1.199,1.351-2.002,2.556-1.785
								c1.199,0.213,1.998,1.357,1.785,2.556c-0.264,1.488-0.492,2.831-0.72,4.177c-0.23,1.354-0.461,2.709-0.728,4.207
								C1913.35,1352.361,1912.42,1353.112,1911.371,1353.112z"/>
							<path style="fill:#363E44;" d="M1915.106,1336.481c-0.18,0-0.362-0.022-0.545-0.069c-1.18-0.299-1.894-1.499-1.593-2.679
								l1.988-7.822c0.3-1.182,1.496-1.895,2.681-1.593c1.18,0.299,1.894,1.499,1.593,2.679l-1.989,7.822
								C1916.988,1335.818,1916.091,1336.481,1915.106,1336.481z"/>
						</g>
					</g>
				</g>
				<g>
					<g>
						<polygon style="fill:#D87355;" points="1712.458,1314.599 1787.667,1314.599 1738.068,1198.571 1662.86,1198.571 						"/>
						<path style="fill:#EFBC73;" d="M1721.052,1212.57c0,2.807,2.276,5.083,5.083,5.083c2.807,0,5.083-2.276,5.083-5.083
							c0-2.807-2.276-5.083-5.083-5.083C1723.328,1207.487,1721.052,1209.763,1721.052,1212.57z"/>
					</g>
					<g>
						<path style="fill:#84524D;" d="M1664.695,1238.227c0,7.615,0.642,13.788,13.831,13.788c13.19,0,33.932-6.173,33.932-13.788
							c0-7.615-20.742-13.788-33.932-13.788C1665.337,1224.439,1664.695,1230.612,1664.695,1238.227z"/>
						<path style="fill:#84524D;" d="M1671.699,1258.489c0,7.615,0.642,13.788,13.832,13.788c13.189,0,33.932-6.173,33.932-13.788
							c0-7.615-20.742-13.788-33.932-13.788C1672.341,1244.701,1671.699,1250.874,1671.699,1258.489z"/>
						<path style="fill:#84524D;" d="M1678.703,1278.751c0,7.615,0.642,13.788,13.832,13.788c13.19,0,33.932-6.173,33.932-13.788
							s-20.742-13.788-33.932-13.788C1679.345,1264.963,1678.703,1271.136,1678.703,1278.751z"/>
						<path style="fill:#84524D;" d="M1685.707,1296.185c0,6.053,0.51,10.96,10.995,10.96s26.972-4.907,26.972-10.96
							c0-6.053-16.488-10.96-26.972-10.96S1685.707,1290.132,1685.707,1296.185z"/>
					</g>
				</g>
			</g>
			<g>
				
					<ellipse transform="matrix(0.0092 -1 1 0.0092 785.7052 3111.4751)" style="fill:#363E44;" cx="1962.928" cy="1159.264" rx="48.533" ry="48.535"/>
				<path style="fill:#84524D;" d="M1929.403,1183.455L1929.403,1183.455c6.142-3.393,16.664-12.455,20.058-6.314l39.817,63.672
					c3.393,6.141-16.975,4.004-23.117,7.397l0,0c-6.142,3.393-13.871,1.165-17.265-4.976l-24.47-42.515
					C1921.034,1194.577,1923.262,1186.848,1929.403,1183.455z"/>
				<ellipse style="fill:#84524D;" cx="1968.333" cy="1245.732" rx="34.334" ry="10.337"/>
				<path style="fill:#84524D;" d="M1897.265,1200.973c5.509,10.309,37.802,5.877,37.802,5.877l28.161-21.96
					c7.338-14.716,1.356-32.593-13.361-39.93c-14.717-7.337-32.595-1.355-39.932,13.361
					C1909.934,1158.32,1891.654,1190.473,1897.265,1200.973z"/>
				<path style="fill:#84524D;" d="M1909.502,1166.853c0,0-11.378,4.104-12.012,6.37c-0.755,2.704,6.819,8.36,6.819,8.36
					S1909.294,1166.773,1909.502,1166.853z"/>
				<g>
					<path style="fill:#FFFFFF;" d="M1934.119,1177.702c0,0-3.265-4.623-8.643-7.304c-1.144-0.57-3.551,9.661-2.206,9.684
						C1929.182,1180.183,1934.119,1177.702,1934.119,1177.702z"/>
					<g>
						<defs>
							<path id="SVGID_1_" d="M1934.119,1177.702c0,0-4.802-6.8-12.351-8.688c-7.549-1.888-14.987,1.85-14.987,1.85
								s4.802,6.8,12.351,8.688C1926.681,1181.44,1934.119,1177.702,1934.119,1177.702z"/>
						</defs>
						<clipPath id="SVGID_00000065061300861893010270000005906341030792574094_">
							<use xlink:href="#SVGID_1_"  style="overflow:visible;"/>
						</clipPath>
						<path style="clip-path:url(#SVGID_00000065061300861893010270000005906341030792574094_);fill:#363E44;" d="
							M1925.366,1170.048c-1.784-5.33-7.55-8.205-12.88-6.421c-5.33,1.783-8.205,7.55-6.422,12.88
							c1.783,5.33,7.55,8.205,12.88,6.421C1924.274,1181.145,1927.149,1175.378,1925.366,1170.048z"/>
					</g>
				</g>
				<path style="fill:#363E44;" d="M1910.473,1192.128c-2.234,0-4.337-1.178-5.498-3.128c-0.623-1.046-0.281-2.399,0.766-3.023
					c1.046-0.624,2.399-0.282,3.022,0.766c0.402,0.672,1.16,1.057,1.924,0.963c0.735-0.084,1.377-0.596,1.631-1.305
					c0.411-1.148,1.672-1.74,2.821-1.331c1.146,0.411,1.742,1.675,1.331,2.821c-0.817,2.274-2.891,3.923-5.284,4.196
					C1910.946,1192.115,1910.708,1192.128,1910.473,1192.128z"/>
				<path style="fill:#363E44;" d="M1984.447,1190.303c0,0-41.842,1.846-68.3-39.993c-26.459-41.839,46.149-39.378,76.299-25.227
					C2011.757,1134.147,1984.447,1190.303,1984.447,1190.303z"/>
				<path style="fill:#FFFFFF;" d="M1974.086,1225.452c-2.836,0-7.615-0.573-11.719-3.858c-4.339-3.471-6.759-8.987-7.194-16.394
					c-0.664-11.291,7.176-17.445,12.365-21.516c1.229-0.967,2.857-2.244,3.399-2.967c-0.517-0.405-2.102-1.294-6.871-2.571
					c-24.2-6.472-37.651-33.716-38.212-34.872c-0.531-1.096-0.073-2.414,1.022-2.946c1.098-0.53,2.416-0.073,2.945,1.021
					c0.129,0.265,13.154,26.591,35.384,32.538c6.928,1.854,9.695,3.473,10.207,5.979c0.573,2.793-1.954,4.776-5.151,7.286
					c-4.733,3.714-11.215,8.8-10.686,17.789c0.36,6.106,2.226,10.55,5.548,13.209c4.658,3.729,10.661,2.797,10.723,2.786
					c1.206-0.196,2.335,0.62,2.531,1.822c0.197,1.201-0.618,2.334-1.821,2.532
					C1976.447,1225.308,1975.513,1225.452,1974.086,1225.452z M1971.161,1180.936h0.021H1971.161z"/>
				<path style="fill:#363E44;" d="M2040.392,1019.366c0,0,41.463,91.507-55.107,133.689c0,0,43.133-75.329-29.192-136.843
					L2040.392,1019.366z"/>
			</g>
		</g>
		<g>
			<path style="fill:#D87355;" d="M1588.052,1992.722c4.693,36.578-23.802,68.962-60.68,68.962H397.557
				c-33.787,0-61.177-27.39-61.177-61.177v-43.152l0,0c15.79-17.98,24.497-41.091,24.497-65.02v-32.18
				c0-21.219,17.202-38.421,38.421-38.421h57.351l0,0c116.237-109.479,269.775-170.631,429.452-171.044l69.958-0.181
				c64.131-0.166,126.345,21.86,176.084,62.342l116.297,94.651c11.446,9.316,25.192,15.373,39.791,17.534l162.735,26.167
				C1522.977,1862.781,1578.771,1920.381,1588.052,1992.722L1588.052,1992.722z"/>
			<g>
				<circle style="fill:#363E44;" cx="1348.977" cy="2040.324" r="100.516"/>
				<circle style="fill:#EFBC73;" cx="1348.977" cy="2040.324" r="71.076"/>
			</g>
			<g>
				<circle style="fill:#363E44;" cx="589.556" cy="2040.324" r="100.516"/>
				<circle style="fill:#EFBC73;" cx="589.556" cy="2040.324" r="71.076"/>
			</g>
			<path style="fill:#363E44;" d="M577.833,1826.466h644.699l-172.164-130.242c-11.585-8.764-25.417-14.064-39.893-15.285l0,0
				c-161.072-13.576-321.606,24.61-457.13,107.606L577.833,1826.466z"/>
			
				<ellipse transform="matrix(0.3524 -0.9358 0.9358 0.3524 -817.5964 2639.457)" style="fill:#FFFFFF;" cx="1498.374" cy="1910.493" rx="23.378" ry="72.069"/>
			<polygon style="fill:#D87355;" points="411.376,1911.065 359.015,1911.065 361.216,1865.307 431.643,1865.307 			"/>
			<path style="fill:#363E44;" d="M1210.86,2042.53H748.757c-0.711,0-1.378-0.342-1.793-0.919L605.7,1844.511
				c-0.476-0.665-0.546-1.54-0.18-2.272l28.732-57.463c0.545-1.087,1.867-1.529,2.958-0.986c1.089,0.545,1.531,1.869,0.986,2.958
				l-28.137,56.272l139.831,195.099h459.458l38.798-100.586c21.65-56.128-0.023-119.422-51.532-150.5l-151.67-88.908
				c-1.05-0.616-1.403-1.966-0.787-3.016c0.615-1.051,1.967-1.406,3.018-0.786l151.693,88.921
				c53.369,32.198,75.813,97.748,53.393,155.877l-39.343,101.999C1212.589,2041.968,1211.772,2042.53,1210.86,2042.53z"/>
			<path style="fill:#363E44;" d="M933.072,2043.001c-1.082,0-2.026-0.797-2.18-1.899L899.81,1818.43
				c-0.169-1.208,0.673-2.321,1.879-2.489c1.188-0.179,2.319,0.67,2.488,1.878l31.083,222.672c0.169,1.208-0.673,2.321-1.879,2.489
				C933.277,2042.995,933.175,2043.001,933.072,2043.001z"/>
			<ellipse style="fill:#FFD092;" cx="695.339" cy="1861.819" rx="44.694" ry="6.455"/>
			<ellipse style="fill:#FFD092;" cx="989.308" cy="1861.819" rx="44.694" ry="6.455"/>
			<path style="fill:#FFD092;" d="M409.893,2000.44h-60.677l0,0c10.596-24.893,33.771-42.156,60.657-45.182l0.02-0.002
				c12.477,0,22.592,10.115,22.592,22.592v0C432.485,1990.325,422.37,2000.44,409.893,2000.44z"/>
			<path style="fill:#FFD092;" d="M1559.109,2021.873h-23.065c-6.208,0-11.038-5.397-10.352-11.568l2.581-23.194
				c0.587-5.274,5.045-9.264,10.352-9.264h23.065c6.208,0,11.038,5.397,10.352,11.568l-2.581,23.194
				C1568.873,2017.883,1564.415,2021.873,1559.109,2021.873z"/>
		</g>
		<g>
			<path style="fill:#FFFFFF;" d="M1662.638,1167.925c-42.376,0-76.851-34.465-76.851-76.831c0-42.365,34.475-76.833,76.851-76.833
				c42.375,0,76.85,34.468,76.85,76.833C1739.488,1133.459,1705.013,1167.925,1662.638,1167.925z M1662.638,1018.671
				c-39.944,0-72.442,32.489-72.442,72.423c0,39.932,32.497,72.421,72.442,72.421c39.944,0,72.44-32.489,72.44-72.421
				C1735.078,1051.16,1702.582,1018.671,1662.638,1018.671z"/>
			<ellipse style="fill:#8B865C;" cx="1662.638" cy="1091.093" rx="60.58" ry="60.565"/>
			<polygon style="fill:#FFFFFF;" points="1661.143,1130.41 1621.146,1087.348 1632.676,1076.644 1659.317,1105.327 
				1691.17,1059.086 1704.129,1068.008 			"/>
		</g>
		<g>
			<g>
				<path style="fill:#E0AA63;" d="M515.467,634.192c-29.377,50.869-14.461,114.462,36.579,143.922
					c51.039,29.46,118.874,13.632,148.25-37.237c29.377-50.869,11.815-115.989-39.224-145.449
					C610.033,565.967,544.843,583.323,515.467,634.192z"/>
				
					<ellipse transform="matrix(0.4708 -0.8823 0.8823 0.4708 -284.873 900.1653)" style="fill:#FFD092;" cx="607.882" cy="687.534" rx="88.33" ry="88.615"/>
				<g>
					<path style="fill:#D87355;" d="M626.455,711.663c0.051-4.048-1.366-7.546-4.249-10.494c-2.884-2.947-7.644-5.6-14.277-7.959
						c-9.184-2.89-16.097-6.685-20.739-11.384c-4.643-4.698-6.915-10.913-6.817-18.646c0.094-7.505,2.328-13.595,6.7-18.271
						c4.372-4.676,10.352-7.444,17.939-8.304l0.19-15.078l10.816,0.136l-0.191,15.146c7.653,1.188,13.556,4.527,17.709,10.015
						c4.152,5.489,6.172,12.804,6.057,21.946l-13.417-0.169c0.078-6.185-1.297-11.207-4.124-15.064
						c-2.827-3.857-6.797-5.818-11.908-5.882c-5.385-0.068-9.43,1.28-12.135,4.044c-2.705,2.764-4.088,6.579-4.149,11.446
						c-0.055,4.412,1.279,8,4.007,10.764c2.726,2.764,7.679,5.419,14.859,7.966c9.317,3.119,16.208,6.949,20.669,11.485
						c4.462,4.537,6.644,10.65,6.547,18.336c-0.098,7.823-2.528,14.014-7.286,18.571c-4.759,4.558-11.251,7.216-19.476,7.978
						l-0.165,13.099l-10.747-0.135l0.164-13.031c-7.84-0.918-14.238-3.852-19.196-8.805c-4.959-4.952-7.287-12.158-6.985-21.617
						l0.141-0.34l13.006,0.164c-0.088,7.005,1.617,12.02,5.117,15.042c3.498,3.024,7.827,4.568,12.984,4.633
						c5.887,0.074,10.502-1.267,13.846-4.022C624.69,720.478,626.393,716.621,626.455,711.663z"/>
				</g>
			</g>
			<g>
				<path style="fill:#E0AA63;" d="M553.812,952.967c-24.867,43.06-12.241,96.892,30.964,121.83
					c43.205,24.938,100.627,11.539,125.494-31.521c24.867-43.061,10.002-98.184-33.203-123.122S578.68,909.906,553.812,952.967z"/>
				
					<ellipse transform="matrix(0.4708 -0.8823 0.8823 0.4708 -546.1031 1085.8531)" style="fill:#FFD092;" cx="632.041" cy="998.121" rx="74.771" ry="75.013"/>
				<g>
					<path style="fill:#D87355;" d="M647.592,1018.409c0.012-3.427-1.214-6.377-3.678-8.85c-2.464-2.472-6.513-4.681-12.147-6.627
						c-7.796-2.376-13.677-5.535-17.642-9.476c-3.966-3.941-5.937-9.184-5.914-15.731c0.022-6.353,1.866-11.525,5.531-15.518
						c3.664-3.991,8.705-6.381,15.121-7.167l0.045-12.764l9.156,0.032l-0.045,12.822c6.487,0.947,11.509,3.728,15.067,8.341
						c3.557,4.614,5.323,10.79,5.296,18.53l-11.358-0.04c0.018-5.236-1.184-9.477-3.607-12.719
						c-2.423-3.243-5.798-4.872-10.125-4.887c-4.559-0.016-7.972,1.156-10.241,3.517c-2.269,2.36-3.41,5.601-3.424,9.72
						c-0.013,3.735,1.145,6.762,3.474,9.08c2.329,2.318,6.542,4.528,12.639,6.629c7.911,2.569,13.773,5.757,17.584,9.563
						c3.812,3.806,5.706,8.963,5.683,15.47c-0.023,6.623-2.032,11.882-6.024,15.776c-3.993,3.895-9.468,6.195-16.424,6.903
						l-0.039,11.089l-9.098-0.032l0.038-11.032c-6.643-0.716-12.082-3.151-16.317-7.306c-4.236-4.154-6.262-10.235-6.079-18.244
						l0.117-0.289l11.011,0.039c-0.021,5.93,1.462,10.162,4.447,12.693c2.984,2.533,6.66,3.807,11.027,3.822
						c4.983,0.017,8.88-1.153,11.689-3.511C646.166,1025.884,647.578,1022.606,647.592,1018.409z"/>
				</g>
			</g>
			<g>
				<path style="fill:#E0AA63;" d="M768.415,787.114c-20.612,35.693-10.146,80.313,25.666,100.984
					c35.812,20.671,83.409,9.565,104.022-26.128c20.612-35.693,8.29-81.385-27.522-102.056
					C834.769,739.244,789.028,751.422,768.415,787.114z"/>
				
					<ellipse transform="matrix(0.4707 -0.8823 0.8823 0.4707 -286.4618 1171.5533)" style="fill:#FFD092;" cx="833.259" cy="824.543" rx="61.978" ry="62.178"/>
				<g>
					<path style="fill:#D87355;" d="M846.094,841.308c0-2.84-1.025-5.282-3.074-7.325c-2.05-2.042-5.412-3.862-10.087-5.458
						c-6.469-1.947-11.353-4.549-14.651-7.805c-3.299-3.256-4.947-7.596-4.947-13.023c0-5.266,1.514-9.558,4.54-12.878
						c3.026-3.319,7.198-5.314,12.513-5.984l0.001-10.58l7.59,0l-0.001,10.628c5.38,0.766,9.551,3.057,12.513,6.871
						c2.962,3.815,4.443,8.929,4.442,15.344l-9.415-0.001c0-4.34-1.008-7.852-3.026-10.533c-2.017-2.681-4.82-4.022-8.406-4.022
						c-3.779,0-6.605,0.981-8.478,2.944c-1.874,1.963-2.81,4.652-2.811,8.067c0,3.096,0.968,5.601,2.906,7.517
						c1.937,1.915,5.435,3.735,10.495,5.459c6.564,2.107,11.432,4.733,14.602,7.877c3.17,3.144,4.755,7.414,4.755,12.807
						c0,5.49-1.65,9.855-4.949,13.093c-3.299,3.24-7.83,5.162-13.594,5.768l-0.001,9.192l-7.542-0.001l0.001-9.144
						c-5.508-0.575-10.023-2.578-13.546-6.009c-3.523-3.431-5.22-8.466-5.091-15.105l0.096-0.239l9.127,0.001
						c0,4.916,1.24,8.419,3.722,10.509c2.481,2.091,5.531,3.136,9.151,3.137c4.131,0,7.357-0.981,9.679-2.944
						C844.932,847.508,846.094,844.787,846.094,841.308z"/>
				</g>
			</g>
		</g>
	</g>
</g>
</svg>
